<svg width="73" height="93" viewBox="0 0 73 93" fill="none" xmlns="http://www.w3.org/2000/svg">
<g clip-path="url(#clip0_248_199982)">
<path d="M28.1327 73.7502L45.9006 78.4883M40.4883 33.6411L33.9786 38.7584L38.5227 44.539L32.0129 49.6563M58.4094 45.2733L58.5116 49.8694C58.5933 53.5463 55.719 56.741 54.2739 57.877L47.7641 62.9943L45.6963 69.2962L27.9284 64.558L25.5542 57.0717L18.7381 48.4008C17.2249 46.4759 14.1735 41.701 14.0918 38.0241L13.9897 33.4281C13.8542 27.3333 16.0643 22.1122 20.1337 18.9132C24.2031 15.7143 29.7985 14.7996 35.6889 16.3704C41.5793 17.9412 47.2823 21.8687 51.5432 27.2891C55.8041 32.7095 58.274 39.1786 58.4094 45.2733Z" stroke="#3D3D3D" stroke-width="5"/>
</g>
<defs>
<clipPath id="clip0_248_199982">
<rect width="73.5552" height="73.5552" fill="white" transform="matrix(0.966235 0.257663 0.0222167 0.999753 0 0)"/>
</clipPath>
</defs>
</svg>
