<svg width="92" height="117" viewBox="0 0 92 117" fill="none" xmlns="http://www.w3.org/2000/svg">
<path d="M67.0564 60.9948C66.1698 59.6035 65.0996 58.3173 64.1041 57.051C61.545 54.0589 58.6637 51.6354 56.2143 48.5571C50.5123 41.4164 49.0699 31.7548 52.4661 25.5391C48.9305 25.4816 45.869 26.6669 43.2609 28.1655C33.7467 33.6352 30.2452 46.8286 35.0821 60.2441C35.2404 60.6712 35.3987 61.0984 35.4099 61.6018C35.4289 62.4537 34.8847 63.0784 34.1431 63.1886C33.2909 63.3463 32.3875 62.8745 31.6627 62.0653C31.4462 61.8245 31.2636 61.554 31.1241 61.2673C26.772 54.6021 25.922 46.4842 28.6251 40.892C22.4922 44.4917 19.2844 52.4899 19.9577 61.0226C20.2253 63.0186 20.4928 65.0147 21.1721 67.1205C21.7477 69.5836 22.8098 72.1765 23.9781 74.5282C28.1689 82.3052 35.2741 88.9732 42.8181 91.9472C50.8503 95.1285 59.387 95.9037 65.3974 91.8094C72.1033 87.2076 74.2696 77.546 70.5555 67.7789L70.0466 66.6424C69.2211 64.6515 67.0564 60.9948 67.0564 60.9948ZM55.7722 82.2368C54.745 82.8867 53.0458 83.4344 51.7071 83.4624C47.5499 83.8935 43.3101 80.6073 40.7833 77.3929C45.2128 77.4962 47.7942 74.7972 48.5036 71.5604C49.0709 68.6322 47.8165 65.7571 47.2638 62.6456C46.751 59.6603 46.7716 57.2407 47.7227 54.8383C48.4665 56.4994 49.2477 58.1705 50.1717 59.5717C53.1395 64.2125 57.7058 67.1239 58.7959 72.6497C58.9576 73.2318 59.0445 73.7939 59.0574 74.3747C59.2403 77.58 57.9704 80.7058 55.7722 82.2368Z" fill="#3D3D3D"/>
</svg>
