<svg width="66" height="89" viewBox="0 0 66 89" fill="none" xmlns="http://www.w3.org/2000/svg">
<path d="M1.66367 32.392L32.7297 29.9429L64.2757 49.0885M32.2499 8.34827L33.8095 78.5309L32.2499 8.34827Z" fill="#424040" fill-opacity="0.19"/>
<path d="M1.66367 32.392L32.7297 29.9429L64.2757 49.0885M32.2499 8.34827L33.8095 78.5309" stroke="#3D3D3D" stroke-width="3"/>
<path d="M2.57495 43.3684C5.89973 59.6323 18.3419 70.875 26.5034 76.6793C29.0366 78.4818 30.3049 79.3853 33.8495 80.3305C37.3975 81.2766 38.6371 81.0419 41.1199 80.577C43.1137 80.2071 45.3554 79.6313 47.6459 78.761M57.871 72.0816C61.7984 67.8481 64.5553 61.671 64.355 52.6553L64.2291 46.9903C63.9733 35.4803 63.8454 29.7253 62.4875 27.4384C61.1332 25.156 55.8639 21.9082 45.3219 15.4155L43.3131 14.1786C37.8194 10.7923 35.0744 9.10147 32.2499 8.34827C29.4254 7.59507 26.7232 7.83333 21.3154 8.31253L19.3378 8.48285C8.96054 9.40068 3.77362 9.86006 2.5052 11.4431C1.23338 13.0288 1.36134 18.7874 1.61704 30.2937L1.66367 32.392" fill="#424040" fill-opacity="0.19"/>
<path d="M2.57495 43.3684C5.89973 59.6323 18.3419 70.875 26.5034 76.6793C29.0366 78.4818 30.3049 79.3853 33.8495 80.3305C37.3975 81.2766 38.6371 81.0419 41.1199 80.577C43.1137 80.2071 45.3554 79.6314 47.6459 78.7609M57.871 72.0816C61.7984 67.8481 64.5553 61.671 64.355 52.6553L64.2291 46.9903C63.9733 35.4803 63.8454 29.7253 62.4875 27.4384C61.1332 25.156 55.8639 21.9082 45.3219 15.4155L43.3131 14.1786C37.8194 10.7923 35.0744 9.10147 32.2499 8.34827C29.4254 7.59507 26.7232 7.83333 21.3154 8.31253L19.3378 8.48285C8.96054 9.40068 3.77362 9.86006 2.5052 11.4431C1.23338 13.0288 1.36134 18.7874 1.61704 30.2937L1.66367 32.392" stroke="#3D3D3D" stroke-width="3" stroke-linecap="round"/>
</svg>
