<svg width="75" height="95" viewBox="0 0 75 95" fill="none" xmlns="http://www.w3.org/2000/svg">
<g clip-path="url(#clip0_248_199942)">
<path d="M43.5337 68.4758C40.1865 65.9606 37.2847 62.7106 35.1107 59.0417L10.1669 52.39L9.33401 14.9086L63.6712 29.3986L63.8284 36.4701C66.3136 38.8975 68.4215 41.7341 70.0151 44.7955L69.7087 31.0086C69.6671 29.352 68.9943 27.596 67.8371 26.1238C66.6798 24.6517 65.1323 23.5832 63.5324 23.1517L9.19519 8.66175C7.59553 8.24009 6.07731 8.49106 4.97211 9.35986C3.86691 10.2287 3.26453 11.6447 3.29653 13.2987L4.12945 50.78C4.17102 52.4366 4.84388 54.1927 6.00111 55.6648C7.15833 57.1369 8.70587 58.2054 10.3057 58.6369L31.4369 64.2719L31.5757 70.5188L25.5382 68.9088L25.6771 75.1557L49.8269 81.5957L49.6881 75.3488L43.6507 73.7388L43.5337 68.4758Z" fill="#3D3D3D"/>
<path d="M51.735 32.4257C48.1527 31.4704 44.6753 31.6357 41.7424 32.9007C38.8096 34.1656 36.5532 36.4735 35.2584 39.5323C33.9636 42.5912 33.6886 46.2636 34.4683 50.0853C35.248 53.907 37.0472 57.7063 39.6385 61.0027C42.2298 64.2992 45.4968 66.9447 49.0263 68.6047C52.5559 70.2647 56.1894 70.8647 59.4675 70.3289C62.7456 69.793 65.521 68.1453 67.4427 65.5941C69.3645 63.043 70.3462 59.7029 70.2638 55.9964C70.1534 51.026 68.1392 45.7504 64.6644 41.33C61.1895 36.9097 56.5387 33.7067 51.735 32.4257ZM52.4291 63.6602C50.0409 63.0233 47.69 61.668 45.6738 59.7657C43.6576 57.8633 42.0665 55.4993 41.1019 52.9727C40.1372 50.446 39.8423 47.8702 40.2543 45.5708C40.6664 43.2715 41.767 41.352 43.4168 40.0551C45.0667 38.7581 47.1918 38.1419 49.5234 38.2845C51.855 38.427 54.2884 39.3218 56.5158 40.8558C58.7432 42.3898 60.6647 44.4941 62.0371 46.9025C63.4096 49.3109 64.1715 51.9153 64.2264 54.3864C64.296 57.6976 63.0931 60.5334 60.8815 62.272C58.6699 64.0105 55.6302 64.5097 52.4291 63.6602Z" fill="#3D3D3D"/>
<path d="M52.221 54.2897C53.8882 54.7343 55.2087 53.6963 55.1704 51.9712C55.132 50.2462 53.7494 48.4874 52.0822 48.0428C50.415 47.5982 49.0946 48.6362 49.1329 50.3612C49.1712 52.0863 50.5538 53.8451 52.221 54.2897Z" fill="#3D3D3D"/>
</g>
<defs>
<clipPath id="clip0_248_199942">
<rect width="74.9814" height="74.9813" fill="white" transform="matrix(0.966235 0.257663 0.0222167 0.999753 0 0)"/>
</clipPath>
</defs>
</svg>
