<svg width="77" height="67" viewBox="0 0 77 67" fill="none" xmlns="http://www.w3.org/2000/svg">
<path d="M35.5684 38.2824C38.2812 39.0058 40.9078 40.8147 42.8702 43.3111C44.8326 45.8074 45.9701 48.7868 46.0324 51.5938C46.1459 56.7004 43.2081 59.9413 39.0782 61.4702C34.948 62.9886 29.3797 62.9346 23.3703 61.332C17.3608 59.7295 11.7285 56.7967 7.48121 53.0444C3.22858 49.2801 0.115983 44.4258 0.00250218 39.3191C-0.059875 36.5122 0.957985 34.1075 2.83216 32.6343C4.70634 31.161 7.28332 30.7397 9.99618 31.4631L35.5684 38.2824ZM69.5957 47.3984C71.4892 48.1026 73.2598 49.4876 74.5647 51.2854C75.8697 53.0832 76.6164 55.166 76.6603 57.131C76.7509 61.211 74.4222 63.9462 71.2394 65.3121C68.0415 66.6898 63.7232 66.8323 59.0537 65.5871C55.4736 64.6324 52.0809 62.9597 49.202 60.84C50.467 58.7418 51.2124 56.1367 51.1418 52.9563C51.0525 48.9398 49.5187 44.8958 47.0783 41.4622C47.4927 41.5025 47.9181 41.5792 48.3545 41.692L68.8122 47.1474L69.5957 47.3984ZM22.0179 0.475704C25.7481 1.47042 29.3596 3.95762 32.0579 7.39013C34.7562 10.8226 36.3202 14.9193 36.406 18.7789C36.4918 22.6385 35.0922 25.9448 32.5152 27.9706C29.9382 29.9964 26.3949 30.5756 22.6647 29.5809C18.9345 28.5862 15.323 26.099 12.6247 22.6665C9.92642 19.234 8.36235 15.1373 8.27659 11.2777C8.19082 7.41813 9.59037 4.11177 12.1674 2.086C14.7444 0.0602263 18.2877 -0.519014 22.0179 0.475704ZM57.9464 15.3014C59.4783 15.6766 61.0082 16.3664 62.4466 17.3303C63.8849 18.2941 65.2027 19.5126 66.3227 20.9144C67.4426 22.3162 68.3423 23.873 68.9689 25.4936C69.5955 27.1142 69.9364 28.7659 69.9716 30.3521C70.0069 31.9382 69.7357 33.4268 69.1741 34.7305C68.6125 36.0343 67.7718 37.127 66.7011 37.9446C65.6304 38.7622 64.3514 39.2882 62.9391 39.4919C61.5267 39.6955 60.0093 39.5727 58.476 39.1306C55.4625 38.2617 52.5668 36.213 50.4096 33.4236C48.2524 30.6343 47.0055 27.3265 46.9362 24.2093C46.8669 21.0921 47.9808 18.4138 50.039 16.7486C52.0972 15.0834 54.9359 14.5638 57.9464 15.3014Z" fill="#3D3D3D"/>
</svg>
