<svg width="109" height="109" viewBox="0 0 109 109" fill="none" xmlns="http://www.w3.org/2000/svg">
<circle cx="54.1512" cy="54.1512" r="53.6512" stroke="white"/>
<path d="M66.8193 58.3224C67.4699 58.4107 68.1146 58.5052 68.7529 58.6066L68.6758 59.1008C69.3204 59.2032 69.9586 59.3125 70.5898 59.4279L70.6787 58.9367C71.3253 59.055 71.9647 59.1802 72.5967 59.3117L72.4951 59.8C73.1347 59.9331 73.767 60.0725 74.3906 60.2189L74.5039 59.7336C75.1447 59.884 75.777 60.0413 76.4004 60.2053L76.2734 60.6877C76.9059 60.8541 77.5293 61.0273 78.1426 61.2072L78.2822 60.7287C78.9151 60.9144 79.5376 61.1072 80.1494 61.3068L79.9951 61.7814C80.6176 61.9846 81.229 62.1943 81.8281 62.4113L81.998 61.9426C82.6195 62.1677 83.2284 62.4002 83.8242 62.6398L83.6387 63.1027C84.247 63.3474 84.8413 63.5995 85.4209 63.8586L85.624 63.4025C86.2289 63.6729 86.8186 63.9501 87.3916 64.2355L87.1689 64.6838C87.7558 64.9761 88.3252 65.276 88.876 65.5832L89.1182 65.1476C89.6975 65.4707 90.2578 65.8009 90.7969 66.1398H90.7979L90.5322 66.5627C91.0886 66.9125 91.622 67.2707 92.1318 67.6359L92.4219 67.2307C92.9647 67.6195 93.4816 68.0172 93.9717 68.423L93.6543 68.8078C94.1575 69.2245 94.631 69.649 95.0732 70.0812L95.4219 69.7238C95.9018 70.1928 96.3469 70.6713 96.7559 71.1584L96.374 71.4797C96.7912 71.9766 97.1681 72.4816 97.5039 72.9933L97.9209 72.7189C98.2877 73.2779 98.6055 73.8476 98.877 74.425L98.4277 74.6369C98.6987 75.2132 98.9184 75.7971 99.085 76.3869L99.5635 76.2512C99.7416 76.8818 99.8621 77.5206 99.9229 78.1672L99.4277 78.2141C99.4566 78.5221 99.4717 78.8323 99.4717 79.1437C99.4717 79.4552 99.4566 79.7653 99.4277 80.0734L99.9229 80.1193C99.8622 80.7663 99.7416 81.4053 99.5635 82.0363L99.085 81.9016C98.9184 82.4913 98.6986 83.0753 98.4277 83.6516L98.877 83.8615C98.6055 84.4389 98.2877 85.0085 97.9209 85.5676L97.5039 85.2951C97.1681 85.8068 96.7912 86.3119 96.374 86.8088L96.7549 87.1291C96.3461 87.6161 95.9017 88.0948 95.4219 88.5637L95.0732 88.2062C94.6309 88.6386 94.1576 89.0638 93.6543 89.4807L93.9727 89.8644C93.4825 90.2704 92.9648 90.6669 92.4219 91.0558L92.1318 90.6516C91.622 91.0168 91.0886 91.3749 90.5322 91.7248L90.7969 92.1476C90.2578 92.4866 89.6975 92.8167 89.1182 93.1398L88.876 92.7053C88.3253 93.0124 87.7557 93.3124 87.1689 93.6047L87.3916 94.051C86.8184 94.3365 86.229 94.6145 85.624 94.8849L85.4209 94.4299C84.8413 94.6889 84.2471 94.9411 83.6387 95.1857L83.8242 95.6476C83.2285 95.8872 82.6194 96.1188 81.998 96.3439L81.8281 95.8762C81.2289 96.0933 80.6177 96.3038 79.9951 96.507L80.1494 96.9807C79.5376 97.1803 78.9151 97.3731 78.2822 97.5588L78.1426 97.0803C77.5293 97.2602 76.906 97.4344 76.2734 97.6008L76.4004 98.0822C75.7771 98.2462 75.1447 98.4025 74.5039 98.5529L74.3906 98.0685C73.767 98.215 73.1348 98.3553 72.4951 98.4885L72.5967 98.9758C71.9647 99.1073 71.3253 99.2325 70.6787 99.3508L70.5898 98.8605C69.9586 98.976 69.3204 99.0853 68.6758 99.1877L68.7529 99.6799C68.1146 99.7813 67.4699 99.8758 66.8193 99.9641L66.7529 99.4709C66.1157 99.5574 65.4726 99.6366 64.8242 99.7101L64.8799 100.205C64.2366 100.278 63.5881 100.345 62.9346 100.404L62.8896 99.9094C62.2482 99.9682 61.602 100.021 60.9512 100.067L60.9854 100.564C60.3396 100.609 59.6894 100.648 59.0352 100.681L59.0107 100.184C58.3679 100.216 57.7209 100.241 57.0703 100.261L57.084 100.759C56.4365 100.778 55.7854 100.792 55.1309 100.798L55.127 100.3C54.8026 100.303 54.4773 100.305 54.1514 100.305C53.8254 100.305 53.5001 100.303 53.1758 100.3L53.1709 100.798C52.5164 100.792 51.8653 100.778 51.2178 100.759L51.2324 100.261C50.5818 100.241 49.9349 100.216 49.292 100.184L49.2666 100.681C48.6123 100.648 47.9622 100.609 47.3164 100.564L47.3516 100.067C46.7008 100.021 46.0545 99.9682 45.4131 99.9094L45.3672 100.404C44.7137 100.344 44.0651 100.278 43.4219 100.205L43.4785 99.7101C42.8301 99.6366 42.187 99.5574 41.5498 99.4709L41.4824 99.9641C40.8319 99.8758 40.1872 99.7813 39.5488 99.6799L39.627 99.1877C38.9823 99.0853 38.3442 98.976 37.7129 98.8605L37.623 99.3508C36.9765 99.2325 36.3371 99.1073 35.7051 98.9758L35.8066 98.4885C35.1672 98.3554 34.5356 98.2149 33.9121 98.0685L33.7979 98.5529C33.1571 98.4025 32.5247 98.2462 31.9014 98.0822L32.0293 97.6008C31.3968 97.4344 30.7734 97.2602 30.1602 97.0803L30.0195 97.5588C29.3867 97.3731 28.7641 97.1803 28.1523 96.9807L28.3076 96.507C27.685 96.3038 27.0729 96.0933 26.4736 95.8762L26.3037 96.3439C25.6823 96.1188 25.0732 95.8872 24.4775 95.6476L24.6641 95.1857C24.0557 94.9411 23.4614 94.6889 22.8818 94.4299L22.6777 94.8849C22.0727 94.6145 21.4833 94.3365 20.9102 94.051L21.1328 93.6047C20.546 93.3124 19.9765 93.0124 19.4258 92.7053L19.1836 93.1398C18.6042 92.8167 18.044 92.4866 17.5049 92.1476L17.7705 91.7248C17.214 91.3749 16.6799 91.0169 16.1699 90.6516L15.8799 91.0558C15.337 90.6669 14.8192 90.2704 14.3291 89.8644L14.6484 89.4807C14.1451 89.0638 13.6709 88.6386 13.2285 88.2062L12.8799 88.5637C12.4001 88.0948 11.9557 87.6161 11.5469 87.1291L11.9287 86.8088C11.5116 86.3119 11.1346 85.8068 10.7988 85.2951L10.3809 85.5685H10.3799C10.013 85.0093 9.69529 84.4391 9.42383 83.8615L9.87402 83.6516C9.60312 83.0753 9.3843 82.4913 9.21777 81.9016L8.73828 82.0363C8.56015 81.4054 8.43956 80.7662 8.37891 80.1193L8.875 80.0734C8.84609 79.7653 8.83105 79.4552 8.83105 79.1437C8.83106 78.8323 8.84609 78.5222 8.875 78.2141L8.37891 78.1672C8.43962 77.5206 8.5602 76.8818 8.73828 76.2512L9.21777 76.3869C9.3843 75.7972 9.60312 75.2132 9.87402 74.6369L9.42383 74.425C9.69534 73.8474 10.013 73.2771 10.3799 72.718L10.3809 72.7189L10.7988 72.9933C11.1346 72.4816 11.5115 71.9766 11.9287 71.4797L11.5459 71.1584C11.9548 70.6713 12.4 70.1928 12.8799 69.7238L13.2285 70.0812C13.6709 69.6489 14.1451 69.2246 14.6484 68.8078L14.3291 68.4221C14.8192 68.0162 15.337 67.6196 15.8799 67.2307L16.1699 67.6359C16.68 67.2705 17.2139 66.9127 17.7705 66.5627L17.5049 66.1398L17.5039 66.1389C18.0431 65.7998 18.6042 65.4708 19.1836 65.1476L19.4258 65.5832C19.9765 65.2761 20.5461 64.9761 21.1328 64.6838L20.9102 64.2355C21.4832 63.9501 22.0729 63.6729 22.6777 63.4025L22.8818 63.8586C23.4614 63.5995 24.0557 63.3474 24.6641 63.1027L24.4775 62.6398C25.0733 62.4002 25.6822 62.1677 26.3037 61.9426L26.4736 62.4113C27.0729 62.1942 27.685 61.9846 28.3076 61.7814L28.1523 61.3068C28.7641 61.1072 29.3867 60.9144 30.0195 60.7287L30.1602 61.2072C30.7733 61.0273 31.3969 60.8541 32.0293 60.6877L31.9014 60.2053C32.5247 60.0413 33.157 59.884 33.7979 59.7336L33.9121 60.2189C34.5355 60.0726 35.1672 59.9331 35.8066 59.8L35.7051 59.3117C36.3371 59.1802 36.9765 59.055 37.623 58.9367L37.7129 59.4279C38.3442 59.3125 38.9823 59.2032 39.627 59.1008L39.5488 58.6066C39.8728 58.5552 40.1983 58.5053 40.5254 58.4572L41.4824 58.3224L41.5498 58.8176C42.187 58.7311 42.8301 58.6509 43.4785 58.5773L43.4219 58.0812C44.0651 58.0083 44.7137 57.942 45.3672 57.882L45.4131 58.3791C46.0545 58.3202 46.7008 58.2679 47.3516 58.2219L47.3164 57.7238C47.9622 57.6782 48.6123 57.6384 49.2666 57.6057L49.292 58.1047C49.9349 58.0725 50.5818 58.046 51.2324 58.0266L51.2178 57.5285C51.8653 57.5092 52.5164 57.495 53.1709 57.4885L53.1758 57.9885C53.5001 57.9852 53.8254 57.9836 54.1514 57.9836C54.4773 57.9836 54.8026 57.9852 55.127 57.9885L55.1309 57.4885C55.7854 57.495 56.4365 57.5092 57.084 57.5285L57.0703 58.0266C57.721 58.046 58.3678 58.0725 59.0107 58.1047L59.0352 57.6057C59.6894 57.6384 60.3396 57.6782 60.9854 57.7238L60.9512 58.2219C61.602 58.2679 62.2482 58.3202 62.8896 58.3791L62.9346 57.882C63.5881 57.942 64.2366 58.0083 64.8799 58.0812L64.8242 58.5773C65.4727 58.6509 66.1157 58.7311 66.7529 58.8176L66.8193 58.3224Z" stroke="white" stroke-opacity="0.2" stroke-dasharray="2 2"/>
<path d="M66.8193 9.1698C67.4699 9.25809 68.1146 9.3526 68.7529 9.45398L68.6758 9.94812C69.3204 10.0505 69.9586 10.1598 70.5898 10.2753L70.6787 9.78406C71.3253 9.90231 71.9647 10.0275 72.5967 10.1591L72.4951 10.6473C73.1347 10.7805 73.767 10.9199 74.3906 11.0663L74.5039 10.5809C75.1447 10.7314 75.777 10.8886 76.4004 11.0526L76.2734 11.535C76.9059 11.7014 77.5293 11.8746 78.1426 12.0546L78.2822 11.576C78.9151 11.7618 79.5376 11.9545 80.1494 12.1542L79.9951 12.6288C80.6176 12.8319 81.229 13.0416 81.8281 13.2587L81.998 12.7899C82.6195 13.0151 83.2284 13.2476 83.8242 13.4872L83.6387 13.9501C84.247 14.1947 84.8413 14.4469 85.4209 14.7059L85.624 14.2499C86.2289 14.5202 86.8186 14.7975 87.3916 15.0829L87.1689 15.5311C87.7558 15.8234 88.3252 16.1234 88.876 16.4305L89.1182 15.995C89.6975 16.3181 90.2578 16.6482 90.7969 16.9872H90.7979L90.5322 17.41C91.0886 17.7599 91.622 18.118 92.1318 18.4833L92.4219 18.078C92.9647 18.4669 93.4816 18.8645 93.9717 19.2704L93.6543 19.6552C94.1575 20.0719 94.631 20.4964 95.0732 20.9286L95.4219 20.5712C95.9018 21.0402 96.3469 21.5186 96.7559 22.0057L96.374 22.327C96.7912 22.824 97.1681 23.3289 97.5039 23.8407L97.9209 23.5663C98.2877 24.1253 98.6055 24.695 98.877 25.2723L98.4277 25.4843C98.6987 26.0606 98.9184 26.6445 99.085 27.2343L99.5635 27.0985C99.7416 27.7292 99.8621 28.3679 99.9229 29.0145L99.4277 29.0614C99.4566 29.3695 99.4717 29.6796 99.4717 29.9911C99.4717 30.3025 99.4566 30.6127 99.4277 30.9208L99.9229 30.9667C99.8622 31.6136 99.7416 32.2527 99.5635 32.8837L99.085 32.7489C98.9184 33.3386 98.6986 33.9226 98.4277 34.4989L98.877 34.7089C98.6055 35.2863 98.2877 35.8559 97.9209 36.4149L97.5039 36.1425C97.1681 36.6542 96.7912 37.1592 96.374 37.6561L96.7549 37.9764C96.3461 38.4634 95.9017 38.9421 95.4219 39.411L95.0732 39.0536C94.6309 39.4859 94.1576 39.9112 93.6543 40.328L93.9727 40.7118C93.4825 41.1177 92.9648 41.5143 92.4219 41.9032L92.1318 41.4989C91.622 41.8642 91.0886 42.2223 90.5322 42.5721L90.7969 42.995C90.2578 43.334 89.6975 43.6641 89.1182 43.9872L88.876 43.5526C88.3253 43.8598 87.7557 44.1597 87.1689 44.452L87.3916 44.8983C86.8184 45.1838 86.229 45.4619 85.624 45.7323L85.4209 45.2772C84.8413 45.5363 84.2471 45.7884 83.6387 46.0331L83.8242 46.495C83.2285 46.7346 82.6194 46.9662 81.998 47.1913L81.8281 46.7235C81.2289 46.9406 80.6177 47.1512 79.9951 47.3544L80.1494 47.828C79.5376 48.0276 78.9151 48.2204 78.2822 48.4061L78.1426 47.9276C77.5293 48.1076 76.906 48.2817 76.2734 48.4481L76.4004 48.9296C75.7771 49.0935 75.1447 49.2498 74.5039 49.4003L74.3906 48.9159C73.767 49.0623 73.1348 49.2027 72.4951 49.3358L72.5967 49.8231C71.9647 49.9547 71.3253 50.0799 70.6787 50.1981L70.5898 49.7079C69.9586 49.8233 69.3204 49.9326 68.6758 50.035L68.7529 50.5272C68.1146 50.6286 67.4699 50.7231 66.8193 50.8114L66.7529 50.3182C66.1157 50.4047 65.4726 50.484 64.8242 50.5575L64.8799 51.0526C64.2366 51.1256 63.5881 51.1919 62.9346 51.2518L62.8896 50.7567C62.2482 50.8156 61.602 50.8679 60.9512 50.9139L60.9854 51.411C60.3396 51.4567 59.6894 51.4954 59.0352 51.5282L59.0107 51.0311C58.3679 51.0633 57.7209 51.0888 57.0703 51.1083L57.084 51.6063C56.4365 51.6257 55.7854 51.6389 55.1309 51.6454L55.127 51.1473C54.8026 51.1506 54.4773 51.1522 54.1514 51.1522C53.8254 51.1522 53.5001 51.1506 53.1758 51.1473L53.1709 51.6454C52.5164 51.6389 51.8653 51.6257 51.2178 51.6063L51.2324 51.1083C50.5818 51.0888 49.9349 51.0633 49.292 51.0311L49.2666 51.5282C48.6123 51.4954 47.9622 51.4567 47.3164 51.411L47.3516 50.9139C46.7008 50.8679 46.0545 50.8156 45.4131 50.7567L45.3672 51.2518C44.7137 51.1918 44.0651 51.1256 43.4219 51.0526L43.4785 50.5575C42.8301 50.484 42.187 50.4047 41.5498 50.3182L41.4824 50.8114C40.8319 50.7231 40.1872 50.6286 39.5488 50.5272L39.627 50.035C38.9823 49.9326 38.3442 49.8233 37.7129 49.7079L37.623 50.1981C36.9765 50.0799 36.3371 49.9547 35.7051 49.8231L35.8066 49.3358C35.1672 49.2027 34.5356 49.0623 33.9121 48.9159L33.7979 49.4003C33.1571 49.2498 32.5247 49.0936 31.9014 48.9296L32.0293 48.4481C31.3968 48.2817 30.7734 48.1076 30.1602 47.9276L30.0195 48.4061C29.3867 48.2204 28.7641 48.0277 28.1523 47.828L28.3076 47.3544C27.685 47.1512 27.0729 46.9406 26.4736 46.7235L26.3037 47.1913C25.6823 46.9661 25.0732 46.7346 24.4775 46.495L24.6641 46.0331C24.0557 45.7884 23.4614 45.5362 22.8818 45.2772L22.6777 45.7323C22.0727 45.4619 21.4833 45.1838 20.9102 44.8983L21.1328 44.452C20.546 44.1597 19.9765 43.8598 19.4258 43.5526L19.1836 43.9872C18.6042 43.6641 18.044 43.334 17.5049 42.995L17.7705 42.5721C17.214 42.2222 16.6799 41.8642 16.1699 41.4989L15.8799 41.9032C15.337 41.5143 14.8192 41.1177 14.3291 40.7118L14.6484 40.328C14.1451 39.9112 13.6709 39.4859 13.2285 39.0536L12.8799 39.411C12.4001 38.9421 11.9557 38.4634 11.5469 37.9764L11.9287 37.6561C11.5116 37.1592 11.1346 36.6542 10.7988 36.1425L10.3809 36.4159H10.3799C10.013 35.8567 9.69529 35.2865 9.42383 34.7089L9.87402 34.4989C9.60312 33.9226 9.3843 33.3386 9.21777 32.7489L8.73828 32.8837C8.56015 32.2527 8.43956 31.6136 8.37891 30.9667L8.875 30.9208C8.84609 30.6127 8.83105 30.3026 8.83105 29.9911C8.83106 29.6796 8.84609 29.3695 8.875 29.0614L8.37891 29.0145C8.43962 28.368 8.5602 27.7291 8.73828 27.0985L9.21777 27.2343C9.3843 26.6445 9.60312 26.0605 9.87402 25.4843L9.42383 25.2723C9.69534 24.6948 10.013 24.1245 10.3799 23.5653L10.3809 23.5663L10.7988 23.8407C11.1346 23.3289 11.5115 22.824 11.9287 22.327L11.5459 22.0057C11.9548 21.5186 12.4 21.0402 12.8799 20.5712L13.2285 20.9286C13.6709 20.4963 14.1451 20.072 14.6484 19.6552L14.3291 19.2694C14.8192 18.8635 15.337 18.4669 15.8799 18.078L16.1699 18.4833C16.68 18.1179 17.2139 17.76 17.7705 17.41L17.5049 16.9872L17.5039 16.9862C18.0431 16.6472 18.6042 16.3181 19.1836 15.995L19.4258 16.4305C19.9765 16.1234 20.5461 15.8234 21.1328 15.5311L20.9102 15.0829C21.4832 14.7975 22.0729 14.5202 22.6777 14.2499L22.8818 14.7059C23.4614 14.4469 24.0557 14.1947 24.6641 13.9501L24.4775 13.4872C25.0733 13.2476 25.6822 13.0151 26.3037 12.7899L26.4736 13.2587C27.0729 13.0416 27.685 12.832 28.3076 12.6288L28.1523 12.1542C28.7641 11.9545 29.3867 11.7618 30.0195 11.576L30.1602 12.0546C30.7733 11.8746 31.3969 11.7014 32.0293 11.535L31.9014 11.0526C32.5247 10.8886 33.157 10.7314 33.7979 10.5809L33.9121 11.0663C34.5355 10.9199 35.1672 10.7804 35.8066 10.6473L35.7051 10.1591C36.3371 10.0275 36.9765 9.90232 37.623 9.78406L37.7129 10.2753C38.3442 10.1598 38.9823 10.0505 39.627 9.94812L39.5488 9.45398C39.8728 9.40253 40.1983 9.35266 40.5254 9.30457L41.4824 9.1698L41.5498 9.66492C42.187 9.57844 42.8301 9.49823 43.4785 9.42468L43.4219 8.92859C44.0651 8.85563 44.7137 8.78935 45.3672 8.72937L45.4131 9.22644C46.0545 9.16757 46.7008 9.11523 47.3516 9.06921L47.3164 8.57117C47.9622 8.52551 48.6123 8.48578 49.2666 8.453L49.292 8.95203C49.9349 8.91982 50.5818 8.89334 51.2324 8.8739L51.2178 8.37585C51.8653 8.35651 52.5164 8.34231 53.1709 8.33582L53.1758 8.83582C53.5001 8.8326 53.8254 8.83093 54.1514 8.83093C54.4773 8.83093 54.8026 8.8326 55.127 8.83582L55.1309 8.33582C55.7854 8.3423 56.4365 8.35652 57.084 8.37585L57.0703 8.8739C57.721 8.89334 58.3678 8.91982 59.0107 8.95203L59.0352 8.453C59.6894 8.48577 60.3396 8.52552 60.9854 8.57117L60.9512 9.06921C61.602 9.11523 62.2482 9.16757 62.8896 9.22644L62.9346 8.72937C63.5881 8.78935 64.2366 8.85563 64.8799 8.92859L64.8242 9.42468C65.4727 9.49823 66.1157 9.57843 66.7529 9.66492L66.8193 9.1698Z" stroke="white" stroke-opacity="0.2" stroke-dasharray="2 2"/>
<path d="M55.1838 34.9949C55.873 35.0003 56.5589 35.011 57.2415 35.0271L57.2307 35.5261C57.9178 35.5424 58.6017 35.5646 59.2815 35.5916L59.3 35.0925C59.9905 35.1199 60.6771 35.153 61.3596 35.1912L61.3323 35.6892C62.019 35.7276 62.702 35.7718 63.3801 35.821L63.4153 35.322C64.1039 35.372 64.7878 35.4282 65.467 35.489L65.4241 35.9861C66.1082 36.0473 66.7873 36.1143 67.4612 36.1863L67.5139 35.6892C68.2024 35.7628 68.8853 35.8429 69.5627 35.9275L69.5012 36.4226C70.1853 36.508 70.8643 36.5987 71.5364 36.6951L71.6057 36.2009C72.2912 36.2992 72.9704 36.4021 73.6428 36.5115L73.5637 37.0056C74.2438 37.1163 74.9174 37.2325 75.5833 37.3542L75.6721 36.864C76.3532 36.9886 77.0269 37.1178 77.6926 37.2537L77.593 37.7429C78.2682 37.8807 78.9355 38.0244 79.594 38.1736L79.7034 37.6863C80.38 37.8395 81.0479 37.9979 81.7063 38.1628L81.5862 38.6482C82.2566 38.8161 82.9173 38.99 83.5676 39.1697L83.7004 38.6892C84.3712 38.8745 85.0311 39.0661 85.6799 39.2634L85.5354 39.74C86.1972 39.9412 86.8471 40.1487 87.4846 40.3621L87.6428 39.8894C88.3038 40.1106 88.9518 40.3382 89.5862 40.572L89.4143 41.0398C90.0639 41.2792 90.6988 41.5251 91.3186 41.7771L91.5061 41.3152C92.1533 41.5784 92.7844 41.8483 93.3987 42.1248L93.1946 42.5798C93.8262 42.8641 94.4393 43.1554 95.0334 43.4529L95.2561 43.0056C95.885 43.3204 96.4927 43.6433 97.0793 43.9724L96.8352 44.407C97.4423 44.7476 98.026 45.0963 98.5842 45.4509L98.8499 45.0291C99.4459 45.4077 100.015 45.794 100.555 46.1882L100.261 46.5906C100.821 46.9989 101.348 47.415 101.842 47.8376L102.166 47.4578C102.707 47.9201 103.209 48.3922 103.672 48.8718L103.314 49.2175C103.793 49.7138 104.228 50.218 104.616 50.7283L105.013 50.4265C105.443 50.9921 105.821 51.5669 106.142 52.1511L105.704 52.3923C106.03 52.9852 106.294 53.5848 106.495 54.1902L106.969 54.032C107.188 54.6921 107.335 55.3615 107.41 56.0388L106.915 56.0935C106.951 56.4162 106.969 56.7409 106.969 57.0671C106.969 57.3933 106.951 57.7181 106.915 58.0408L107.41 58.0945C107.335 58.7716 107.188 59.4405 106.969 60.1003L106.495 59.9441C106.294 60.5495 106.03 61.1491 105.704 61.7419L106.141 61.9822C105.82 62.5663 105.443 63.1413 105.013 63.7068L104.616 63.406C104.228 63.9161 103.794 64.4197 103.315 64.9158L103.672 65.2615C103.209 65.7411 102.707 66.2132 102.166 66.6755L101.842 66.2966C101.348 66.7193 100.821 67.1354 100.261 67.5437L100.555 67.9451C100.015 68.339 99.4464 68.7249 98.8508 69.1033L98.5842 68.6833C98.026 69.038 97.4423 69.3857 96.8352 69.7263L97.0793 70.1609C96.4927 70.49 95.885 70.8129 95.2561 71.1277L95.0334 70.6814C94.4393 70.9789 93.8262 71.2702 93.1946 71.5544L93.3987 72.0076C92.7844 72.284 92.1534 72.554 91.5061 72.8171L91.3186 72.3562C90.6988 72.6082 90.0639 72.8541 89.4143 73.0935L89.5862 73.5613C88.9519 73.7951 88.3037 74.0217 87.6428 74.2429L87.4846 73.7712C86.847 73.9846 86.1973 74.193 85.5354 74.3943L85.6799 74.8699C85.0311 75.0672 84.3712 75.2588 83.7004 75.4441L83.5686 74.9646C82.918 75.1443 82.2568 75.3181 81.5862 75.4861L81.7073 75.9705C81.0486 76.1354 80.3803 76.2937 79.7034 76.447L79.594 75.9607C78.9356 76.1098 78.2682 76.2536 77.593 76.3914L77.6926 76.8787C77.0268 77.0145 76.3532 77.1447 75.6721 77.2693L75.5833 76.78C74.9174 76.9018 74.2438 77.018 73.5637 77.1287L73.6438 77.6218C72.9711 77.7313 72.2915 77.834 71.6057 77.9324L71.5364 77.4392C70.8643 77.5356 70.1853 77.6263 69.5012 77.7117L69.5627 78.2048C68.8853 78.2894 68.2024 78.3705 67.5139 78.4441L67.4612 77.948C66.7873 78.02 66.1082 78.087 65.4241 78.1482L65.467 78.6433C64.7878 78.7041 64.1039 78.7613 63.4153 78.8113L63.3801 78.3132C62.702 78.3624 62.019 78.4066 61.3323 78.4451L61.3596 78.9421C60.6771 78.9803 59.9905 79.0134 59.3 79.0408L59.2815 78.5427C58.6017 78.5697 57.9178 78.5919 57.2307 78.6082L57.2415 79.1052C56.5589 79.1214 55.873 79.132 55.1838 79.1375L55.1809 78.6404C54.8386 78.6431 54.4955 78.6443 54.1516 78.6443C53.8076 78.6443 53.4638 78.6431 53.1213 78.6404L53.1174 79.1375C52.4283 79.132 51.7423 79.1214 51.0598 79.1052L51.0725 78.6082C50.3855 78.5919 49.7015 78.5697 49.0217 78.5427L49.0022 79.0408C48.3114 79.0134 47.6245 78.9804 46.9417 78.9421L46.97 78.4451C46.2831 78.4066 45.6003 78.3624 44.9221 78.3132L44.886 78.8113C44.1974 78.7613 43.5135 78.7041 42.8342 78.6433L42.8792 78.1482C42.1948 78.087 41.5152 78.02 40.8411 77.948L40.7883 78.4441C40.0999 78.3705 39.4169 78.2904 38.7395 78.2058L38.801 77.7117C38.117 77.6263 37.4388 77.5356 36.7668 77.4392L36.6956 77.9314C36.0102 77.8331 35.3308 77.7312 34.6584 77.6218H34.6594L34.7395 77.1287C34.0594 77.018 33.3859 76.9018 32.72 76.78L32.6301 77.2693C31.949 77.1447 31.2754 77.0145 30.6096 76.8787L30.7092 76.3914C30.034 76.2536 29.3667 76.1098 28.7083 75.9607L28.5979 76.447C27.9212 76.2937 27.2535 76.1344 26.595 75.9695L26.717 75.4861C26.0464 75.3181 25.3851 75.1443 24.7346 74.9646L24.6018 75.4441C23.9312 75.2589 23.2711 75.0681 22.6223 74.8708L22.7678 74.3943C22.1059 74.193 21.4553 73.9846 20.8176 73.7712L20.6594 74.2429C19.9985 74.0217 19.3504 73.7951 18.7161 73.5613L18.8889 73.0935C18.2392 72.854 17.6036 72.6083 16.9836 72.3562L16.7961 72.8171C16.149 72.554 15.5177 72.285 14.9036 72.0085L15.1086 71.5544C14.4769 71.2701 13.8631 70.9789 13.2688 70.6814L13.0452 71.1277C12.4166 70.813 11.8093 70.4899 11.2229 70.1609L11.467 69.7263C10.8601 69.3857 10.2771 69.0379 9.71899 68.6833L9.45044 69.1033C8.85509 68.725 8.28702 68.3389 7.74731 67.9451L8.04224 67.5437C7.4826 67.1354 6.95456 66.7194 6.46021 66.2966L6.13501 66.6755C5.59458 66.2134 5.09335 65.7409 4.63013 65.2615L4.98853 64.9158C4.50907 64.4196 4.07403 63.9163 3.68579 63.406L3.28931 63.7068C2.85896 63.1411 2.48126 62.5665 2.1604 61.9822L2.5979 61.7419C2.27235 61.1491 2.00787 60.5494 1.80688 59.9441L1.33325 60.1003C1.11426 59.4405 0.965788 58.7716 0.890869 58.0945L1.38696 58.0408C1.36911 57.8795 1.35591 57.7175 1.34692 57.5554L1.33325 57.0671C1.33325 56.7409 1.35122 56.4162 1.38696 56.0935L0.890869 56.0388C0.965871 55.3615 1.11406 54.6921 1.33325 54.032L1.80688 54.1902C2.00785 53.5849 2.2724 52.9851 2.5979 52.3923L2.15942 52.1511C2.48035 51.5667 2.85885 50.9923 3.28931 50.4265L3.68579 50.7283C4.07411 50.2179 4.50896 49.7138 4.98853 49.2175L4.63013 48.8718C5.09335 48.3924 5.59459 47.9199 6.13501 47.4578L6.46021 47.8376C6.95457 47.4149 7.4826 46.9989 8.04224 46.5906L7.74731 46.1882C8.28736 45.7942 8.85566 45.4075 9.45142 45.0291L9.71899 45.4509C10.2772 45.0963 10.86 44.7476 11.467 44.407L11.2229 43.9724C11.8093 43.6434 12.4166 43.3203 13.0452 43.0056L13.2688 43.4529C13.8631 43.1554 14.4769 42.8641 15.1086 42.5798L14.9036 42.1248C15.5176 41.8484 16.1482 41.5783 16.7952 41.3152L16.9836 41.7771C17.6036 41.525 18.2392 41.2793 18.8889 41.0398L18.7161 40.572C19.3505 40.3382 19.9984 40.1106 20.6594 39.8894L20.8176 40.3621C21.4553 40.1487 22.1059 39.9413 22.7678 39.74L22.6223 39.2625C23.2711 39.0652 23.9312 38.8744 24.6018 38.6892L24.7346 39.1697C25.3852 38.99 26.0464 38.8162 26.717 38.6482L26.595 38.1638C27.2535 37.9989 27.9212 37.8396 28.5979 37.6863L28.7083 38.1736C29.3667 38.0244 30.0341 37.8807 30.7092 37.7429L30.6096 37.2537C31.2753 37.1178 31.9491 36.9886 32.6301 36.864L32.72 37.3542C33.3859 37.2325 34.0594 37.1163 34.7395 37.0056L34.6594 36.5115C35.3315 36.4021 36.0105 36.3001 36.6956 36.2019L36.7668 36.6951C37.4388 36.5987 38.117 36.508 38.801 36.4226L38.7395 35.9275C39.4169 35.8429 40.0999 35.7628 40.7883 35.6892L40.8411 36.1863C41.5152 36.1142 42.1948 36.0473 42.8792 35.9861L42.8342 35.489C43.5134 35.4282 44.1974 35.372 44.886 35.322L44.9221 35.821C45.6003 35.7718 46.2831 35.7277 46.97 35.6892L46.9417 35.1912C47.6245 35.1529 48.3114 35.1199 49.0022 35.0925L49.0217 35.5916C49.7015 35.5646 50.3855 35.5424 51.0725 35.5261L51.0598 35.0271C51.7423 35.0109 52.4283 35.0003 53.1174 34.9949L53.1213 35.4939C53.4638 35.4912 53.8076 35.49 54.1516 35.49C54.4955 35.49 54.8386 35.4912 55.1809 35.4939L55.1838 34.9949Z" stroke="white" stroke-opacity="0.2" stroke-dasharray="2 2"/>
<path d="M47.2373 2.87073C47.8027 2.50743 48.3762 2.18944 48.958 1.92053L48.959 1.92053L49.1689 2.37366C49.7548 2.10292 50.3474 1.8845 50.9453 1.71838L50.8115 1.23791C51.4497 1.06059 52.0953 0.93989 52.748 0.879516L52.7939 1.37659C53.1058 1.34774 53.4194 1.33264 53.7344 1.33264C54.0494 1.33264 54.3629 1.34774 54.6748 1.37659L54.7197 0.879516C55.3725 0.939827 56.0181 1.06065 56.6562 1.23791L56.5234 1.71838C57.1213 1.88449 57.7139 2.10292 58.2998 2.37366L58.5098 1.92053C59.0918 2.18952 59.6657 2.50727 60.2314 2.87073L59.9619 3.29065C60.4848 3.62662 61.0019 4.0041 61.5117 4.42248L61.8281 4.03772C62.322 4.44298 62.8062 4.88603 63.2842 5.36194L62.9336 5.7135C63.3773 6.15527 63.8149 6.62804 64.2451 7.13147L64.624 6.80823C65.0414 7.29669 65.4501 7.81328 65.8525 8.3551L65.4541 8.651C65.8321 9.15993 66.2037 9.69346 66.5684 10.2496L66.9863 9.97717C67.339 10.5151 67.6846 11.0741 68.0234 11.653L67.5937 11.9049C67.9154 12.4544 68.2311 13.0227 68.54 13.609L68.9795 13.3776C69.2805 13.9489 69.5762 14.5363 69.8643 15.1403L69.415 15.3551C69.6909 15.9336 69.961 16.5273 70.2246 17.1354L70.6807 16.9371C70.9385 17.5319 71.19 18.1401 71.4355 18.7614L70.9736 18.944C71.2103 19.5429 71.4412 20.1547 71.666 20.778L72.1338 20.609C72.3545 21.2208 72.5705 21.8434 72.7793 22.4772L72.3047 22.6324C72.5066 23.2452 72.7031 23.8686 72.8936 24.5016L73.3711 24.358C73.5583 24.9803 73.7392 25.612 73.915 26.2526L73.4355 26.3844C73.6066 27.0076 73.7717 27.6397 73.9316 28.2799L74.415 28.1598C74.573 28.792 74.7262 29.4319 74.873 30.0797L74.3867 30.1891C74.5301 30.8217 74.6683 31.4619 74.8008 32.109L75.2881 32.0104C75.4191 32.6505 75.545 33.2973 75.665 33.9508L75.1748 34.0397C75.2922 34.6786 75.4051 35.3239 75.5117 35.9752L76.0039 35.8961C76.1092 36.5394 76.2081 37.1887 76.3027 37.8434L75.8105 37.9137C75.9036 38.5571 75.9908 39.206 76.0732 39.86L76.5684 39.7985C76.6502 40.4475 76.7257 41.1016 76.7969 41.7604L76.3018 41.8131C76.3718 42.4615 76.4366 43.1146 76.4961 43.7721L76.9932 43.7281C77.052 44.3782 77.104 45.0327 77.1523 45.691L76.6562 45.7272C76.704 46.3766 76.7469 47.03 76.7842 47.6871L77.2822 47.6598C77.3193 48.3141 77.3503 48.972 77.377 49.6334L76.8789 49.652C76.9051 50.3041 76.9266 50.9601 76.9424 51.6188L77.4404 51.6071C77.4561 52.2609 77.4664 52.9179 77.4717 53.5778L76.9736 53.5807C76.9763 53.9089 76.9775 54.2384 76.9775 54.568C76.9775 54.8975 76.9763 55.2263 76.9736 55.5543L77.4717 55.5582C77.4664 56.2181 77.4561 56.8751 77.4404 57.5289L76.9424 57.5172C76.9266 58.1757 76.9051 58.8311 76.8789 59.483L77.377 59.5035C77.3503 60.1646 77.3193 60.8223 77.2822 61.4762L76.7842 61.4479C76.7469 62.1051 76.704 62.7593 76.6562 63.4088L77.1523 63.4449C77.104 64.1037 77.052 64.7584 76.9932 65.4088L76.4961 65.3629C76.4366 66.0205 76.3718 66.6744 76.3018 67.3229L76.7969 67.3766C76.7257 68.0354 76.6502 68.6895 76.5684 69.3385L76.0732 69.276C75.9908 69.9297 75.9035 70.5782 75.8105 71.2213L76.3027 71.2936C76.2081 71.9482 76.1093 72.5975 76.0039 73.2408L75.5117 73.1598C75.4051 73.8111 75.2922 74.4564 75.1748 75.0953L75.665 75.1862C75.545 75.8396 75.4191 76.4865 75.2881 77.1266L74.8008 77.026C74.6683 77.6731 74.5301 78.3133 74.3867 78.9459L74.873 79.0563C74.7262 79.7041 74.573 80.344 74.415 80.9762L73.9316 80.8551C73.7716 81.4956 73.6067 82.128 73.4355 82.7516L73.915 82.8834C73.7392 83.524 73.5583 84.1557 73.3711 84.778L72.8936 84.6344C72.7031 85.2672 72.5066 85.8899 72.3047 86.5026L72.7793 86.6598C72.5705 87.2933 72.3544 87.9155 72.1338 88.527L71.666 88.358C71.4412 88.9811 71.2103 89.5922 70.9736 90.191L71.4355 90.3746C71.19 90.9959 70.9385 91.6041 70.6807 92.1989L70.2246 92.0006C69.961 92.6087 69.691 93.2024 69.415 93.7809L69.8643 93.9957C69.5762 94.5997 69.2805 95.187 68.9795 95.7584L68.54 95.527C68.2311 96.1133 67.9155 96.6815 67.5937 97.2311L68.0234 97.484C67.6845 98.0629 67.339 98.6219 66.9863 99.1598L66.5684 98.8854C66.2036 99.4417 65.8322 99.975 65.4541 100.484L65.8535 100.781C65.4506 101.323 65.0408 101.84 64.623 102.329L64.2451 102.004C63.8149 102.507 63.3773 102.981 62.9336 103.422L63.2842 103.775C62.8062 104.251 62.321 104.693 61.8271 105.098L61.5117 104.713C61.0019 105.131 60.4848 105.508 59.9619 105.844L60.2324 106.266C59.6664 106.63 59.0912 106.946 58.5088 107.215L58.2998 106.761C57.7138 107.032 57.1214 107.251 56.5234 107.418L56.6562 107.899C56.0182 108.076 55.3724 108.196 54.7197 108.256L54.6748 107.759C54.3629 107.788 54.0494 107.802 53.7344 107.802C53.4194 107.802 53.1058 107.788 52.7939 107.759L52.748 108.256C52.0954 108.196 51.4496 108.076 50.8115 107.899L50.9453 107.418C50.3474 107.251 49.7549 107.032 49.1689 106.761L48.959 107.215C48.3769 106.946 47.8021 106.63 47.2363 106.266L47.2373 106.265L47.5068 105.844C46.984 105.508 46.4668 105.131 45.957 104.713L45.6406 105.099C45.1466 104.694 44.6617 104.251 44.1836 103.775L44.5352 103.422C44.0914 102.981 43.6539 102.507 43.2236 102.004L42.8447 102.329C42.4269 101.84 42.0171 101.323 41.6143 100.781L42.0146 100.484C41.6365 99.975 41.2651 99.4417 40.9004 98.8854L40.4814 99.1598C40.1288 98.6219 39.7832 98.0629 39.4443 97.484L39.875 97.2311C39.5534 96.6816 39.2386 96.1132 38.9297 95.527L38.4883 95.7594C38.187 95.1877 37.8927 94.5991 37.6045 93.9948L38.0537 93.7809C37.7778 93.2024 37.5078 92.6087 37.2441 92.0006L36.7871 92.1989C36.5293 91.6041 36.2777 90.9959 36.0322 90.3746L36.4961 90.191C36.2595 89.5922 36.0285 88.9811 35.8037 88.358L35.334 88.527C35.1134 87.9155 34.8972 87.2933 34.6885 86.6598L35.1641 86.5026C34.9622 85.8899 34.7656 85.2672 34.5752 84.6344L34.0967 84.778C33.9094 84.1557 33.7286 83.524 33.5527 82.8834L34.0332 82.7516C33.862 82.128 33.6971 81.4956 33.5371 80.8551L33.0527 80.9762C32.9868 80.7125 32.9204 80.4477 32.8564 80.1813L32.5947 79.0563L33.082 78.9459C32.9387 78.3133 32.8004 77.6731 32.668 77.026L32.1807 77.1266C32.0496 76.4864 31.9228 75.8397 31.8027 75.1862L32.2939 75.0953C32.1765 74.4564 32.0637 73.8111 31.957 73.1598L31.4639 73.2408C31.3585 72.5975 31.2597 71.9482 31.165 71.2936L31.6592 71.2213C31.5662 70.578 31.4779 69.9289 31.3955 69.275L30.8994 69.3385C30.8176 68.6895 30.7421 68.0354 30.6709 67.3766L31.167 67.3229C31.0969 66.6744 31.0322 66.0205 30.9727 65.3629L30.4746 65.4088C30.4157 64.7584 30.3638 64.1037 30.3154 63.4449L30.8125 63.4088C30.7648 62.7593 30.7218 62.1051 30.6846 61.4479L30.1855 61.4762C30.1485 60.8223 30.1184 60.1646 30.0918 59.5035L30.5898 59.483C30.5636 58.8311 30.5422 58.1757 30.5264 57.5172L30.0273 57.5289C30.0116 56.8751 30.0014 56.2181 29.9961 55.5582L30.4951 55.5543C30.4925 55.2263 30.4912 54.8975 30.4912 54.568C30.4912 54.2384 30.4925 53.9089 30.4951 53.5807L29.9961 53.5778C30.0014 52.9179 30.0117 52.2609 30.0273 51.6071L30.5264 51.6188C30.5422 50.9601 30.5636 50.3041 30.5898 49.652L30.0918 49.6334C30.1184 48.972 30.1484 48.314 30.1855 47.6598L30.6846 47.6871C30.7218 47.03 30.7648 46.3766 30.8125 45.7272L30.3154 45.691C30.3638 45.0327 30.4158 44.3782 30.4746 43.7281L30.9727 43.7721C31.0322 43.1146 31.0969 42.4615 31.167 41.8131L30.6709 41.7604C30.7421 41.1016 30.8176 40.4475 30.8994 39.7985L30.8994 39.7975L31.3955 39.86C31.4779 39.206 31.5662 38.5571 31.6592 37.9137L31.165 37.8434C31.2597 37.1887 31.3585 36.5394 31.4639 35.8961L31.957 35.9752C32.0637 35.3239 32.1765 34.6786 32.2939 34.0397L31.8027 33.9508C31.9228 33.2973 32.0487 32.6505 32.1797 32.0104L32.668 32.109C32.8004 31.4619 32.9386 30.8217 33.082 30.1891L32.5947 30.0797C32.7415 29.4319 32.8948 28.792 33.0527 28.1598L33.5371 28.2799C33.6971 27.6397 33.8621 27.0076 34.0332 26.3844L33.5527 26.2526C33.7286 25.612 33.9094 24.9802 34.0967 24.358L34.5752 24.5016C34.7657 23.8686 34.9621 23.2452 35.1641 22.6324L34.6885 22.4772C34.8973 21.8434 35.1133 21.2208 35.334 20.609L35.8037 20.778C36.0285 20.1547 36.2594 19.5429 36.4961 18.944L36.0322 18.7614C36.2777 18.1401 36.5293 17.5319 36.7871 16.9371L37.2441 17.1354C37.5078 16.5273 37.7778 15.9336 38.0537 15.3551L37.6045 15.1412C37.8927 14.5369 38.187 13.9483 38.4883 13.3766L38.9297 13.609C39.2385 13.0228 39.5534 12.4543 39.875 11.9049L39.4443 11.653C39.7832 11.0741 40.1288 10.5151 40.4814 9.97717L40.9004 10.2496C41.2651 9.69344 41.6366 9.15994 42.0146 8.651L41.6152 8.3551C42.0177 7.81329 42.4264 7.29668 42.8437 6.80823L43.2236 7.13147C43.6538 6.62802 44.0915 6.15528 44.5352 5.7135L44.1836 5.36194C44.6617 4.88585 45.1466 4.44312 45.6406 4.03772L45.957 4.42248C46.4669 4.0041 46.9839 3.62662 47.5068 3.29065L47.2373 2.87073Z" stroke="white" stroke-opacity="0.2" stroke-dasharray="2 2"/>
<ellipse cx="49.9858" cy="22.9101" rx="6.66476" ry="4.58202" fill="white"/>
<ellipse cx="50" cy="23.5" rx="11" ry="7.5" fill="white" fill-opacity="0.13"/>
<path d="M49.9854 14.5C53.5732 14.5 56.8011 15.5459 59.1191 17.2119C61.4379 18.8786 62.8154 21.1374 62.8154 23.5811C62.8153 26.0245 61.4378 28.2827 59.1191 29.9492C56.8011 31.6152 53.5732 32.6611 49.9854 32.6611C46.3977 32.6611 43.1704 31.6151 40.8525 29.9492C38.5339 28.2827 37.1564 26.0245 37.1562 23.5811C37.1562 21.1374 38.5337 18.8786 40.8525 17.2119C43.1704 15.546 46.3977 14.5001 49.9854 14.5Z" stroke="white" stroke-opacity="0.13"/>
</svg>
