<svg width="481" height="240" viewBox="0 0 481 240" fill="none" xmlns="http://www.w3.org/2000/svg">
                            <circle cx="46" cy="116" r="45.75" fill="#0D0D0D" stroke="white" stroke-width="0.5" />
                            <circle cx="211" cy="39" r="38.75" fill="#0D0D0D" stroke="white" stroke-width="0.5" />
                            <circle cx="211" cy="198" r="38.75" fill="#0D0D0D" stroke="white" stroke-width="0.5" />
                            <circle cx="330" cy="39" r="38.75" fill="#0D0D0D" stroke="white" stroke-width="0.5" />
                            <circle cx="442" cy="114" r="38.75" fill="#0D0D0D" stroke="white" stroke-width="0.5" />
                            <circle cx="330" cy="201" r="38.75" fill="#0D0D0D" stroke="white" stroke-width="0.5" />
                            <path d="M22.0505 121L26.5305 111.2H27.5525L32.0325 121H30.9405L26.8245 111.802H27.2445L23.1285 121H22.0505ZM23.8145 118.382L24.1225 117.542H29.8205L30.1285 118.382H23.8145ZM35.2093 121.07C34.6027 121.07 34.0287 120.986 33.4873 120.818C32.946 120.641 32.5213 120.421 32.2133 120.16L32.6613 119.376C32.96 119.6 33.3427 119.796 33.8093 119.964C34.276 120.123 34.766 120.202 35.2793 120.202C35.9793 120.202 36.4833 120.095 36.7913 119.88C37.0993 119.656 37.2533 119.362 37.2533 118.998C37.2533 118.727 37.1647 118.517 36.9873 118.368C36.8193 118.209 36.5953 118.093 36.3153 118.018C36.0353 117.934 35.7227 117.864 35.3773 117.808C35.032 117.752 34.6867 117.687 34.3413 117.612C34.0053 117.537 33.6973 117.43 33.4173 117.29C33.1373 117.141 32.9087 116.94 32.7313 116.688C32.5633 116.436 32.4793 116.1 32.4793 115.68C32.4793 115.279 32.5913 114.919 32.8153 114.602C33.0393 114.285 33.366 114.037 33.7953 113.86C34.234 113.673 34.766 113.58 35.3913 113.58C35.8673 113.58 36.3433 113.645 36.8193 113.776C37.2953 113.897 37.6873 114.061 37.9953 114.266L37.5613 115.064C37.2347 114.84 36.8847 114.681 36.5113 114.588C36.138 114.485 35.7647 114.434 35.3913 114.434C34.7287 114.434 34.2387 114.551 33.9213 114.784C33.6133 115.008 33.4593 115.297 33.4593 115.652C33.4593 115.932 33.5433 116.151 33.7113 116.31C33.8887 116.469 34.1173 116.595 34.3973 116.688C34.6867 116.772 34.9993 116.842 35.3353 116.898C35.6807 116.954 36.0213 117.024 36.3573 117.108C36.7027 117.183 37.0153 117.29 37.2953 117.43C37.5847 117.561 37.8133 117.752 37.9813 118.004C38.1587 118.247 38.2473 118.569 38.2473 118.97C38.2473 119.399 38.126 119.773 37.8833 120.09C37.65 120.398 37.3047 120.641 36.8473 120.818C36.3993 120.986 35.8533 121.07 35.2093 121.07ZM42.9833 121.07C42.2553 121.07 41.6019 120.911 41.0233 120.594C40.4539 120.267 40.0059 119.824 39.6793 119.264C39.3526 118.695 39.1893 118.046 39.1893 117.318C39.1893 116.581 39.3526 115.932 39.6793 115.372C40.0059 114.812 40.4539 114.373 41.0233 114.056C41.6019 113.739 42.2553 113.58 42.9833 113.58C43.6086 113.58 44.1733 113.701 44.6773 113.944C45.1813 114.187 45.5779 114.551 45.8673 115.036L45.1253 115.54C44.8733 115.167 44.5606 114.891 44.1873 114.714C43.8139 114.537 43.4079 114.448 42.9693 114.448C42.4466 114.448 41.9753 114.569 41.5553 114.812C41.1353 115.045 40.8039 115.377 40.5613 115.806C40.3186 116.235 40.1973 116.739 40.1973 117.318C40.1973 117.897 40.3186 118.401 40.5613 118.83C40.8039 119.259 41.1353 119.595 41.5553 119.838C41.9753 120.071 42.4466 120.188 42.9693 120.188C43.4079 120.188 43.8139 120.099 44.1873 119.922C44.5606 119.745 44.8733 119.474 45.1253 119.11L45.8673 119.614C45.5779 120.09 45.1813 120.454 44.6773 120.706C44.1733 120.949 43.6086 121.07 42.9833 121.07ZM50.6789 121.07C49.9136 121.07 49.2416 120.911 48.6629 120.594C48.0842 120.267 47.6316 119.824 47.3049 119.264C46.9782 118.695 46.8149 118.046 46.8149 117.318C46.8149 116.59 46.9689 115.946 47.2769 115.386C47.5942 114.826 48.0236 114.387 48.5649 114.07C49.1156 113.743 49.7316 113.58 50.4129 113.58C51.1036 113.58 51.7149 113.739 52.2469 114.056C52.7882 114.364 53.2129 114.803 53.5209 115.372C53.8289 115.932 53.9829 116.581 53.9829 117.318C53.9829 117.365 53.9782 117.416 53.9689 117.472C53.9689 117.519 53.9689 117.57 53.9689 117.626H47.5709V116.884H53.4369L53.0449 117.178C53.0449 116.646 52.9282 116.175 52.6949 115.764C52.4709 115.344 52.1629 115.017 51.7709 114.784C51.3789 114.551 50.9262 114.434 50.4129 114.434C49.9089 114.434 49.4562 114.551 49.0549 114.784C48.6536 115.017 48.3409 115.344 48.1169 115.764C47.8929 116.184 47.7809 116.665 47.7809 117.206V117.36C47.7809 117.92 47.9022 118.415 48.1449 118.844C48.3969 119.264 48.7422 119.595 49.1809 119.838C49.6289 120.071 50.1376 120.188 50.7069 120.188C51.1549 120.188 51.5702 120.109 51.9529 119.95C52.3449 119.791 52.6809 119.549 52.9609 119.222L53.5209 119.866C53.1942 120.258 52.7836 120.557 52.2889 120.762C51.8036 120.967 51.2669 121.07 50.6789 121.07ZM55.8661 121V110.612H56.8601V121H55.8661ZM59.4859 121V110.612H60.4799V121H59.4859ZM67.7117 121V119.376L67.6697 119.11V116.394C67.6697 115.769 67.4923 115.288 67.1377 114.952C66.7923 114.616 66.2743 114.448 65.5837 114.448C65.1077 114.448 64.655 114.527 64.2257 114.686C63.7963 114.845 63.4323 115.055 63.1337 115.316L62.6857 114.574C63.059 114.257 63.507 114.014 64.0297 113.846C64.5523 113.669 65.103 113.58 65.6817 113.58C66.6337 113.58 67.3663 113.818 67.8797 114.294C68.4023 114.761 68.6637 115.475 68.6637 116.436V121H67.7117ZM65.1777 121.07C64.627 121.07 64.1463 120.981 63.7357 120.804C63.3343 120.617 63.0263 120.365 62.8117 120.048C62.597 119.721 62.4897 119.348 62.4897 118.928C62.4897 118.545 62.5783 118.2 62.7557 117.892C62.9423 117.575 63.241 117.323 63.6517 117.136C64.0717 116.94 64.6317 116.842 65.3317 116.842H67.8657V117.584H65.3597C64.6503 117.584 64.1557 117.71 63.8757 117.962C63.605 118.214 63.4697 118.527 63.4697 118.9C63.4697 119.32 63.633 119.656 63.9597 119.908C64.2863 120.16 64.7437 120.286 65.3317 120.286C65.8917 120.286 66.3723 120.16 66.7737 119.908C67.1843 119.647 67.483 119.273 67.6697 118.788L67.8937 119.474C67.707 119.959 67.3803 120.347 66.9137 120.636C66.4563 120.925 65.8777 121.07 65.1777 121.07Z" fill="white" />
                            <path d="M190.322 37L194.162 28.6H195.038L198.878 37H197.942L194.414 29.116H194.774L191.246 37H190.322ZM191.834 34.756L192.098 34.036H196.982L197.246 34.756H191.834ZM201.661 37.06C201.141 37.06 200.649 36.988 200.185 36.844C199.721 36.692 199.357 36.504 199.093 36.28L199.477 35.608C199.733 35.8 200.061 35.968 200.461 36.112C200.861 36.248 201.281 36.316 201.721 36.316C202.321 36.316 202.753 36.224 203.017 36.04C203.281 35.848 203.413 35.596 203.413 35.284C203.413 35.052 203.337 34.872 203.185 34.744C203.041 34.608 202.849 34.508 202.609 34.444C202.369 34.372 202.101 34.312 201.805 34.264C201.509 34.216 201.213 34.16 200.917 34.096C200.629 34.032 200.365 33.94 200.125 33.82C199.885 33.692 199.689 33.52 199.537 33.304C199.393 33.088 199.321 32.8 199.321 32.44C199.321 32.096 199.417 31.788 199.609 31.516C199.801 31.244 200.081 31.032 200.449 30.88C200.825 30.72 201.281 30.64 201.817 30.64C202.225 30.64 202.633 30.696 203.041 30.808C203.449 30.912 203.785 31.052 204.049 31.228L203.677 31.912C203.397 31.72 203.097 31.584 202.777 31.504C202.457 31.416 202.137 31.372 201.817 31.372C201.249 31.372 200.829 31.472 200.557 31.672C200.293 31.864 200.161 32.112 200.161 32.416C200.161 32.656 200.233 32.844 200.377 32.98C200.529 33.116 200.725 33.224 200.965 33.304C201.213 33.376 201.481 33.436 201.769 33.484C202.065 33.532 202.357 33.592 202.645 33.664C202.941 33.728 203.209 33.82 203.449 33.94C203.697 34.052 203.893 34.216 204.037 34.432C204.189 34.64 204.265 34.916 204.265 35.26C204.265 35.628 204.161 35.948 203.953 36.22C203.753 36.484 203.457 36.692 203.065 36.844C202.681 36.988 202.213 37.06 201.661 37.06ZM208.384 37.06C207.76 37.06 207.2 36.924 206.704 36.652C206.216 36.372 205.832 35.992 205.552 35.512C205.272 35.024 205.132 34.468 205.132 33.844C205.132 33.212 205.272 32.656 205.552 32.176C205.832 31.696 206.216 31.32 206.704 31.048C207.2 30.776 207.76 30.64 208.384 30.64C208.92 30.64 209.404 30.744 209.836 30.952C210.268 31.16 210.608 31.472 210.856 31.888L210.22 32.32C210.004 32 209.736 31.764 209.416 31.612C209.096 31.46 208.748 31.384 208.372 31.384C207.924 31.384 207.52 31.488 207.16 31.696C206.8 31.896 206.516 32.18 206.308 32.548C206.1 32.916 205.996 33.348 205.996 33.844C205.996 34.34 206.1 34.772 206.308 35.14C206.516 35.508 206.8 35.796 207.16 36.004C207.52 36.204 207.924 36.304 208.372 36.304C208.748 36.304 209.096 36.228 209.416 36.076C209.736 35.924 210.004 35.692 210.22 35.38L210.856 35.812C210.608 36.22 210.268 36.532 209.836 36.748C209.404 36.956 208.92 37.06 208.384 37.06ZM215.04 37.06C214.384 37.06 213.808 36.924 213.312 36.652C212.816 36.372 212.428 35.992 212.148 35.512C211.868 35.024 211.728 34.468 211.728 33.844C211.728 33.22 211.86 32.668 212.124 32.188C212.396 31.708 212.764 31.332 213.228 31.06C213.7 30.78 214.228 30.64 214.812 30.64C215.404 30.64 215.928 30.776 216.384 31.048C216.848 31.312 217.212 31.688 217.476 32.176C217.74 32.656 217.872 33.212 217.872 33.844C217.872 33.884 217.868 33.928 217.86 33.976C217.86 34.016 217.86 34.06 217.86 34.108H212.376V33.472H217.404L217.068 33.724C217.068 33.268 216.968 32.864 216.768 32.512C216.576 32.152 216.312 31.872 215.976 31.672C215.64 31.472 215.252 31.372 214.812 31.372C214.38 31.372 213.992 31.472 213.648 31.672C213.304 31.872 213.036 32.152 212.844 32.512C212.652 32.872 212.556 33.284 212.556 33.748V33.88C212.556 34.36 212.66 34.784 212.868 35.152C213.084 35.512 213.38 35.796 213.756 36.004C214.14 36.204 214.576 36.304 215.064 36.304C215.448 36.304 215.804 36.236 216.132 36.1C216.468 35.964 216.756 35.756 216.996 35.476L217.476 36.028C217.196 36.364 216.844 36.62 216.42 36.796C216.004 36.972 215.544 37.06 215.04 37.06ZM219.547 37V28.096H220.399V37H219.547ZM222.709 37V28.096H223.561V37H222.709ZM229.82 37V35.608L229.784 35.38V33.052C229.784 32.516 229.632 32.104 229.328 31.816C229.032 31.528 228.588 31.384 227.996 31.384C227.588 31.384 227.2 31.452 226.832 31.588C226.464 31.724 226.152 31.904 225.896 32.128L225.512 31.492C225.832 31.22 226.216 31.012 226.664 30.868C227.112 30.716 227.584 30.64 228.08 30.64C228.896 30.64 229.524 30.844 229.964 31.252C230.412 31.652 230.636 32.264 230.636 33.088V37H229.82ZM227.648 37.06C227.176 37.06 226.764 36.984 226.412 36.832C226.068 36.672 225.804 36.456 225.62 36.184C225.436 35.904 225.344 35.584 225.344 35.224C225.344 34.896 225.42 34.6 225.572 34.336C225.732 34.064 225.988 33.848 226.34 33.688C226.7 33.52 227.18 33.436 227.78 33.436H229.952V34.072H227.804C227.196 34.072 226.772 34.18 226.532 34.396C226.3 34.612 226.184 34.88 226.184 35.2C226.184 35.56 226.324 35.848 226.604 36.064C226.884 36.28 227.276 36.388 227.78 36.388C228.26 36.388 228.672 36.28 229.016 36.064C229.368 35.84 229.624 35.52 229.784 35.104L229.976 35.692C229.816 36.108 229.536 36.44 229.136 36.688C228.744 36.936 228.248 37.06 227.648 37.06ZM191.009 50V41.6H191.897V50H191.009ZM197.606 43.64C198.118 43.64 198.566 43.74 198.95 43.94C199.342 44.132 199.646 44.428 199.862 44.828C200.086 45.228 200.198 45.732 200.198 46.34V50H199.346V46.424C199.346 45.76 199.178 45.26 198.842 44.924C198.514 44.58 198.05 44.408 197.45 44.408C197.002 44.408 196.61 44.5 196.274 44.684C195.946 44.86 195.69 45.12 195.506 45.464C195.33 45.8 195.242 46.208 195.242 46.688V50H194.39V43.7H195.206V45.428L195.074 45.104C195.274 44.648 195.594 44.292 196.034 44.036C196.474 43.772 196.998 43.64 197.606 43.64ZM202.583 50V42.908C202.583 42.348 202.747 41.896 203.075 41.552C203.403 41.208 203.875 41.036 204.491 41.036C204.731 41.036 204.963 41.068 205.187 41.132C205.411 41.196 205.599 41.296 205.751 41.432L205.463 42.068C205.343 41.964 205.203 41.888 205.043 41.84C204.883 41.784 204.711 41.756 204.527 41.756C204.167 41.756 203.891 41.856 203.699 42.056C203.507 42.256 203.411 42.552 203.411 42.944V43.904L203.435 44.3V50H202.583ZM201.455 44.408V43.7H205.355V44.408H201.455ZM208.908 50.06C208.3 50.06 207.752 49.924 207.264 49.652C206.784 49.372 206.404 48.992 206.124 48.512C205.844 48.024 205.704 47.468 205.704 46.844C205.704 46.212 205.844 45.656 206.124 45.176C206.404 44.696 206.784 44.32 207.264 44.048C207.744 43.776 208.292 43.64 208.908 43.64C209.532 43.64 210.084 43.776 210.564 44.048C211.052 44.32 211.432 44.696 211.704 45.176C211.984 45.656 212.124 46.212 212.124 46.844C212.124 47.468 211.984 48.024 211.704 48.512C211.432 48.992 211.052 49.372 210.564 49.652C210.076 49.924 209.524 50.06 208.908 50.06ZM208.908 49.304C209.364 49.304 209.768 49.204 210.12 49.004C210.472 48.796 210.748 48.508 210.948 48.14C211.156 47.764 211.26 47.332 211.26 46.844C211.26 46.348 211.156 45.916 210.948 45.548C210.748 45.18 210.472 44.896 210.12 44.696C209.768 44.488 209.368 44.384 208.92 44.384C208.472 44.384 208.072 44.488 207.72 44.696C207.368 44.896 207.088 45.18 206.88 45.548C206.672 45.916 206.568 46.348 206.568 46.844C206.568 47.332 206.672 47.764 206.88 48.14C207.088 48.508 207.368 48.796 207.72 49.004C208.072 49.204 208.468 49.304 208.908 49.304ZM215.496 50.06C214.976 50.06 214.484 49.988 214.02 49.844C213.556 49.692 213.192 49.504 212.928 49.28L213.312 48.608C213.568 48.8 213.896 48.968 214.296 49.112C214.696 49.248 215.116 49.316 215.556 49.316C216.156 49.316 216.588 49.224 216.852 49.04C217.116 48.848 217.248 48.596 217.248 48.284C217.248 48.052 217.172 47.872 217.02 47.744C216.876 47.608 216.684 47.508 216.444 47.444C216.204 47.372 215.936 47.312 215.64 47.264C215.344 47.216 215.048 47.16 214.752 47.096C214.464 47.032 214.2 46.94 213.96 46.82C213.72 46.692 213.524 46.52 213.372 46.304C213.228 46.088 213.156 45.8 213.156 45.44C213.156 45.096 213.252 44.788 213.444 44.516C213.636 44.244 213.916 44.032 214.284 43.88C214.66 43.72 215.116 43.64 215.652 43.64C216.06 43.64 216.468 43.696 216.876 43.808C217.284 43.912 217.62 44.052 217.884 44.228L217.512 44.912C217.232 44.72 216.932 44.584 216.612 44.504C216.292 44.416 215.972 44.372 215.652 44.372C215.084 44.372 214.664 44.472 214.392 44.672C214.128 44.864 213.996 45.112 213.996 45.416C213.996 45.656 214.068 45.844 214.212 45.98C214.364 46.116 214.56 46.224 214.8 46.304C215.048 46.376 215.316 46.436 215.604 46.484C215.9 46.532 216.192 46.592 216.48 46.664C216.776 46.728 217.044 46.82 217.284 46.94C217.532 47.052 217.728 47.216 217.872 47.432C218.024 47.64 218.1 47.916 218.1 48.26C218.1 48.628 217.996 48.948 217.788 49.22C217.588 49.484 217.292 49.692 216.9 49.844C216.516 49.988 216.048 50.06 215.496 50.06ZM222.279 50.06C221.623 50.06 221.047 49.924 220.551 49.652C220.055 49.372 219.667 48.992 219.387 48.512C219.107 48.024 218.967 47.468 218.967 46.844C218.967 46.22 219.099 45.668 219.363 45.188C219.635 44.708 220.003 44.332 220.467 44.06C220.939 43.78 221.467 43.64 222.051 43.64C222.643 43.64 223.167 43.776 223.623 44.048C224.087 44.312 224.451 44.688 224.715 45.176C224.979 45.656 225.111 46.212 225.111 46.844C225.111 46.884 225.107 46.928 225.099 46.976C225.099 47.016 225.099 47.06 225.099 47.108H219.615V46.472H224.643L224.307 46.724C224.307 46.268 224.207 45.864 224.007 45.512C223.815 45.152 223.551 44.872 223.215 44.672C222.879 44.472 222.491 44.372 222.051 44.372C221.619 44.372 221.231 44.472 220.887 44.672C220.543 44.872 220.275 45.152 220.083 45.512C219.891 45.872 219.795 46.284 219.795 46.748V46.88C219.795 47.36 219.899 47.784 220.107 48.152C220.323 48.512 220.619 48.796 220.995 49.004C221.379 49.204 221.815 49.304 222.303 49.304C222.687 49.304 223.043 49.236 223.371 49.1C223.707 48.964 223.995 48.756 224.235 48.476L224.715 49.028C224.435 49.364 224.083 49.62 223.659 49.796C223.243 49.972 222.783 50.06 222.279 50.06ZM229.401 50.06C228.777 50.06 228.217 49.924 227.721 49.652C227.233 49.372 226.849 48.992 226.569 48.512C226.289 48.024 226.149 47.468 226.149 46.844C226.149 46.212 226.289 45.656 226.569 45.176C226.849 44.696 227.233 44.32 227.721 44.048C228.217 43.776 228.777 43.64 229.401 43.64C229.937 43.64 230.421 43.744 230.853 43.952C231.285 44.16 231.625 44.472 231.873 44.888L231.237 45.32C231.021 45 230.753 44.764 230.433 44.612C230.113 44.46 229.765 44.384 229.389 44.384C228.941 44.384 228.537 44.488 228.177 44.696C227.817 44.896 227.533 45.18 227.325 45.548C227.117 45.916 227.013 46.348 227.013 46.844C227.013 47.34 227.117 47.772 227.325 48.14C227.533 48.508 227.817 48.796 228.177 49.004C228.537 49.204 228.941 49.304 229.389 49.304C229.765 49.304 230.113 49.228 230.433 49.076C230.753 48.924 231.021 48.692 231.237 48.38L231.873 48.812C231.625 49.22 231.285 49.532 230.853 49.748C230.421 49.956 229.937 50.06 229.401 50.06Z" fill="white" />
                            <path d="M190.322 192L194.162 183.6H195.038L198.878 192H197.942L194.414 184.116H194.774L191.246 192H190.322ZM191.834 189.756L192.098 189.036H196.982L197.246 189.756H191.834ZM201.661 192.06C201.141 192.06 200.649 191.988 200.185 191.844C199.721 191.692 199.357 191.504 199.093 191.28L199.477 190.608C199.733 190.8 200.061 190.968 200.461 191.112C200.861 191.248 201.281 191.316 201.721 191.316C202.321 191.316 202.753 191.224 203.017 191.04C203.281 190.848 203.413 190.596 203.413 190.284C203.413 190.052 203.337 189.872 203.185 189.744C203.041 189.608 202.849 189.508 202.609 189.444C202.369 189.372 202.101 189.312 201.805 189.264C201.509 189.216 201.213 189.16 200.917 189.096C200.629 189.032 200.365 188.94 200.125 188.82C199.885 188.692 199.689 188.52 199.537 188.304C199.393 188.088 199.321 187.8 199.321 187.44C199.321 187.096 199.417 186.788 199.609 186.516C199.801 186.244 200.081 186.032 200.449 185.88C200.825 185.72 201.281 185.64 201.817 185.64C202.225 185.64 202.633 185.696 203.041 185.808C203.449 185.912 203.785 186.052 204.049 186.228L203.677 186.912C203.397 186.72 203.097 186.584 202.777 186.504C202.457 186.416 202.137 186.372 201.817 186.372C201.249 186.372 200.829 186.472 200.557 186.672C200.293 186.864 200.161 187.112 200.161 187.416C200.161 187.656 200.233 187.844 200.377 187.98C200.529 188.116 200.725 188.224 200.965 188.304C201.213 188.376 201.481 188.436 201.769 188.484C202.065 188.532 202.357 188.592 202.645 188.664C202.941 188.728 203.209 188.82 203.449 188.94C203.697 189.052 203.893 189.216 204.037 189.432C204.189 189.64 204.265 189.916 204.265 190.26C204.265 190.628 204.161 190.948 203.953 191.22C203.753 191.484 203.457 191.692 203.065 191.844C202.681 191.988 202.213 192.06 201.661 192.06ZM208.384 192.06C207.76 192.06 207.2 191.924 206.704 191.652C206.216 191.372 205.832 190.992 205.552 190.512C205.272 190.024 205.132 189.468 205.132 188.844C205.132 188.212 205.272 187.656 205.552 187.176C205.832 186.696 206.216 186.32 206.704 186.048C207.2 185.776 207.76 185.64 208.384 185.64C208.92 185.64 209.404 185.744 209.836 185.952C210.268 186.16 210.608 186.472 210.856 186.888L210.22 187.32C210.004 187 209.736 186.764 209.416 186.612C209.096 186.46 208.748 186.384 208.372 186.384C207.924 186.384 207.52 186.488 207.16 186.696C206.8 186.896 206.516 187.18 206.308 187.548C206.1 187.916 205.996 188.348 205.996 188.844C205.996 189.34 206.1 189.772 206.308 190.14C206.516 190.508 206.8 190.796 207.16 191.004C207.52 191.204 207.924 191.304 208.372 191.304C208.748 191.304 209.096 191.228 209.416 191.076C209.736 190.924 210.004 190.692 210.22 190.38L210.856 190.812C210.608 191.22 210.268 191.532 209.836 191.748C209.404 191.956 208.92 192.06 208.384 192.06ZM215.04 192.06C214.384 192.06 213.808 191.924 213.312 191.652C212.816 191.372 212.428 190.992 212.148 190.512C211.868 190.024 211.728 189.468 211.728 188.844C211.728 188.22 211.86 187.668 212.124 187.188C212.396 186.708 212.764 186.332 213.228 186.06C213.7 185.78 214.228 185.64 214.812 185.64C215.404 185.64 215.928 185.776 216.384 186.048C216.848 186.312 217.212 186.688 217.476 187.176C217.74 187.656 217.872 188.212 217.872 188.844C217.872 188.884 217.868 188.928 217.86 188.976C217.86 189.016 217.86 189.06 217.86 189.108H212.376V188.472H217.404L217.068 188.724C217.068 188.268 216.968 187.864 216.768 187.512C216.576 187.152 216.312 186.872 215.976 186.672C215.64 186.472 215.252 186.372 214.812 186.372C214.38 186.372 213.992 186.472 213.648 186.672C213.304 186.872 213.036 187.152 212.844 187.512C212.652 187.872 212.556 188.284 212.556 188.748V188.88C212.556 189.36 212.66 189.784 212.868 190.152C213.084 190.512 213.38 190.796 213.756 191.004C214.14 191.204 214.576 191.304 215.064 191.304C215.448 191.304 215.804 191.236 216.132 191.1C216.468 190.964 216.756 190.756 216.996 190.476L217.476 191.028C217.196 191.364 216.844 191.62 216.42 191.796C216.004 191.972 215.544 192.06 215.04 192.06ZM219.547 192V183.096H220.399V192H219.547ZM222.709 192V183.096H223.561V192H222.709ZM229.82 192V190.608L229.784 190.38V188.052C229.784 187.516 229.632 187.104 229.328 186.816C229.032 186.528 228.588 186.384 227.996 186.384C227.588 186.384 227.2 186.452 226.832 186.588C226.464 186.724 226.152 186.904 225.896 187.128L225.512 186.492C225.832 186.22 226.216 186.012 226.664 185.868C227.112 185.716 227.584 185.64 228.08 185.64C228.896 185.64 229.524 185.844 229.964 186.252C230.412 186.652 230.636 187.264 230.636 188.088V192H229.82ZM227.648 192.06C227.176 192.06 226.764 191.984 226.412 191.832C226.068 191.672 225.804 191.456 225.62 191.184C225.436 190.904 225.344 190.584 225.344 190.224C225.344 189.896 225.42 189.6 225.572 189.336C225.732 189.064 225.988 188.848 226.34 188.688C226.7 188.52 227.18 188.436 227.78 188.436H229.952V189.072H227.804C227.196 189.072 226.772 189.18 226.532 189.396C226.3 189.612 226.184 189.88 226.184 190.2C226.184 190.56 226.324 190.848 226.604 191.064C226.884 191.28 227.276 191.388 227.78 191.388C228.26 191.388 228.672 191.28 229.016 191.064C229.368 190.84 229.624 190.52 229.784 190.104L229.976 190.692C229.816 191.108 229.536 191.44 229.136 191.688C228.744 191.936 228.248 192.06 227.648 192.06ZM188.357 205.072C187.733 205.072 187.133 204.972 186.557 204.772C185.989 204.564 185.549 204.3 185.237 203.98L185.585 203.296C185.881 203.584 186.277 203.828 186.773 204.028C187.277 204.22 187.805 204.316 188.357 204.316C188.885 204.316 189.313 204.252 189.641 204.124C189.977 203.988 190.221 203.808 190.373 203.584C190.533 203.36 190.613 203.112 190.613 202.84C190.613 202.512 190.517 202.248 190.325 202.048C190.141 201.848 189.897 201.692 189.593 201.58C189.289 201.46 188.953 201.356 188.585 201.268C188.217 201.18 187.849 201.088 187.481 200.992C187.113 200.888 186.773 200.752 186.461 200.584C186.157 200.416 185.909 200.196 185.717 199.924C185.533 199.644 185.441 199.28 185.441 198.832C185.441 198.416 185.549 198.036 185.765 197.692C185.989 197.34 186.329 197.06 186.785 196.852C187.241 196.636 187.825 196.528 188.537 196.528C189.009 196.528 189.477 196.596 189.941 196.732C190.405 196.86 190.805 197.04 191.141 197.272L190.841 197.98C190.481 197.74 190.097 197.564 189.689 197.452C189.289 197.34 188.901 197.284 188.525 197.284C188.021 197.284 187.605 197.352 187.277 197.488C186.949 197.624 186.705 197.808 186.545 198.04C186.393 198.264 186.317 198.52 186.317 198.808C186.317 199.136 186.409 199.4 186.593 199.6C186.785 199.8 187.033 199.956 187.337 200.068C187.649 200.18 187.989 200.28 188.357 200.368C188.725 200.456 189.089 200.552 189.449 200.656C189.817 200.76 190.153 200.896 190.457 201.064C190.769 201.224 191.017 201.44 191.201 201.712C191.393 201.984 191.489 202.34 191.489 202.78C191.489 203.188 191.377 203.568 191.153 203.92C190.929 204.264 190.585 204.544 190.121 204.76C189.665 204.968 189.077 205.072 188.357 205.072ZM195.752 205.06C195.144 205.06 194.596 204.924 194.108 204.652C193.628 204.372 193.248 203.992 192.968 203.512C192.688 203.024 192.548 202.468 192.548 201.844C192.548 201.212 192.688 200.656 192.968 200.176C193.248 199.696 193.628 199.32 194.108 199.048C194.588 198.776 195.136 198.64 195.752 198.64C196.376 198.64 196.928 198.776 197.408 199.048C197.896 199.32 198.276 199.696 198.548 200.176C198.828 200.656 198.968 201.212 198.968 201.844C198.968 202.468 198.828 203.024 198.548 203.512C198.276 203.992 197.896 204.372 197.408 204.652C196.92 204.924 196.368 205.06 195.752 205.06ZM195.752 204.304C196.208 204.304 196.612 204.204 196.964 204.004C197.316 203.796 197.592 203.508 197.792 203.14C198 202.764 198.104 202.332 198.104 201.844C198.104 201.348 198 200.916 197.792 200.548C197.592 200.18 197.316 199.896 196.964 199.696C196.612 199.488 196.212 199.384 195.764 199.384C195.316 199.384 194.916 199.488 194.564 199.696C194.212 199.896 193.932 200.18 193.724 200.548C193.516 200.916 193.412 201.348 193.412 201.844C193.412 202.332 193.516 202.764 193.724 203.14C193.932 203.508 194.212 203.796 194.564 204.004C194.916 204.204 195.312 204.304 195.752 204.304ZM200.791 205V197.908C200.791 197.348 200.955 196.896 201.283 196.552C201.611 196.208 202.083 196.036 202.699 196.036C202.939 196.036 203.171 196.068 203.395 196.132C203.619 196.196 203.807 196.296 203.959 196.432L203.671 197.068C203.551 196.964 203.411 196.888 203.251 196.84C203.091 196.784 202.919 196.756 202.735 196.756C202.375 196.756 202.099 196.856 201.907 197.056C201.715 197.256 201.619 197.552 201.619 197.944V198.904L201.643 199.3V205H200.791ZM199.663 199.408V198.7H203.563V199.408H199.663ZM206.646 205.06C206.054 205.06 205.598 204.9 205.278 204.58C204.958 204.26 204.798 203.808 204.798 203.224V197.308H205.65V203.176C205.65 203.544 205.742 203.828 205.926 204.028C206.118 204.228 206.39 204.328 206.742 204.328C207.118 204.328 207.43 204.22 207.678 204.004L207.978 204.616C207.81 204.768 207.606 204.88 207.366 204.952C207.134 205.024 206.894 205.06 206.646 205.06ZM203.67 199.408V198.7H207.57V199.408H203.67ZM210.635 205L208.259 198.7H209.075L211.235 204.544H210.863L213.083 198.7H213.815L216.011 204.544H215.639L217.835 198.7H218.615L216.227 205H215.423L213.311 199.504H213.563L211.439 205H210.635ZM223.599 205V203.608L223.563 203.38V201.052C223.563 200.516 223.411 200.104 223.107 199.816C222.811 199.528 222.367 199.384 221.775 199.384C221.367 199.384 220.979 199.452 220.611 199.588C220.243 199.724 219.931 199.904 219.675 200.128L219.291 199.492C219.611 199.22 219.995 199.012 220.443 198.868C220.891 198.716 221.363 198.64 221.859 198.64C222.675 198.64 223.303 198.844 223.743 199.252C224.191 199.652 224.415 200.264 224.415 201.088V205H223.599ZM221.427 205.06C220.955 205.06 220.543 204.984 220.191 204.832C219.847 204.672 219.583 204.456 219.399 204.184C219.215 203.904 219.123 203.584 219.123 203.224C219.123 202.896 219.199 202.6 219.351 202.336C219.511 202.064 219.767 201.848 220.119 201.688C220.479 201.52 220.959 201.436 221.559 201.436H223.731V202.072H221.583C220.975 202.072 220.551 202.18 220.311 202.396C220.079 202.612 219.963 202.88 219.963 203.2C219.963 203.56 220.103 203.848 220.383 204.064C220.663 204.28 221.055 204.388 221.559 204.388C222.039 204.388 222.451 204.28 222.795 204.064C223.147 203.84 223.403 203.52 223.563 203.104L223.755 203.692C223.595 204.108 223.315 204.44 222.915 204.688C222.523 204.936 222.027 205.06 221.427 205.06ZM226.669 205V198.7H227.485V200.416L227.401 200.116C227.577 199.636 227.873 199.272 228.289 199.024C228.705 198.768 229.221 198.64 229.837 198.64V199.468C229.805 199.468 229.773 199.468 229.741 199.468C229.709 199.46 229.677 199.456 229.645 199.456C228.981 199.456 228.461 199.66 228.085 200.068C227.709 200.468 227.521 201.04 227.521 201.784V205H226.669ZM233.949 205.06C233.293 205.06 232.717 204.924 232.221 204.652C231.725 204.372 231.337 203.992 231.057 203.512C230.777 203.024 230.637 202.468 230.637 201.844C230.637 201.22 230.769 200.668 231.033 200.188C231.305 199.708 231.673 199.332 232.137 199.06C232.609 198.78 233.137 198.64 233.721 198.64C234.313 198.64 234.837 198.776 235.293 199.048C235.757 199.312 236.121 199.688 236.385 200.176C236.649 200.656 236.781 201.212 236.781 201.844C236.781 201.884 236.777 201.928 236.769 201.976C236.769 202.016 236.769 202.06 236.769 202.108H231.285V201.472H236.313L235.977 201.724C235.977 201.268 235.877 200.864 235.677 200.512C235.485 200.152 235.221 199.872 234.885 199.672C234.549 199.472 234.161 199.372 233.721 199.372C233.289 199.372 232.901 199.472 232.557 199.672C232.213 199.872 231.945 200.152 231.753 200.512C231.561 200.872 231.465 201.284 231.465 201.748V201.88C231.465 202.36 231.569 202.784 231.777 203.152C231.993 203.512 232.289 203.796 232.665 204.004C233.049 204.204 233.485 204.304 233.973 204.304C234.357 204.304 234.713 204.236 235.041 204.1C235.377 203.964 235.665 203.756 235.905 203.476L236.385 204.028C236.105 204.364 235.753 204.62 235.329 204.796C234.913 204.972 234.453 205.06 233.949 205.06ZM200.132 218V209.096H200.984V218H200.132ZM207.242 218V216.608L207.206 216.38V214.052C207.206 213.516 207.054 213.104 206.75 212.816C206.454 212.528 206.01 212.384 205.418 212.384C205.01 212.384 204.622 212.452 204.254 212.588C203.886 212.724 203.574 212.904 203.318 213.128L202.934 212.492C203.254 212.22 203.638 212.012 204.086 211.868C204.534 211.716 205.006 211.64 205.502 211.64C206.318 211.64 206.946 211.844 207.386 212.252C207.834 212.652 208.058 213.264 208.058 214.088V218H207.242ZM205.07 218.06C204.598 218.06 204.186 217.984 203.834 217.832C203.49 217.672 203.226 217.456 203.042 217.184C202.858 216.904 202.766 216.584 202.766 216.224C202.766 215.896 202.842 215.6 202.994 215.336C203.154 215.064 203.41 214.848 203.762 214.688C204.122 214.52 204.602 214.436 205.202 214.436H207.374V215.072H205.226C204.618 215.072 204.194 215.18 203.954 215.396C203.722 215.612 203.606 215.88 203.606 216.2C203.606 216.56 203.746 216.848 204.026 217.064C204.306 217.28 204.698 217.388 205.202 217.388C205.682 217.388 206.094 217.28 206.438 217.064C206.79 216.84 207.046 216.52 207.206 216.104L207.398 216.692C207.238 217.108 206.958 217.44 206.558 217.688C206.166 217.936 205.67 218.06 205.07 218.06ZM213.564 218.06C213.012 218.06 212.516 217.936 212.076 217.688C211.636 217.432 211.288 217.064 211.032 216.584C210.776 216.104 210.648 215.524 210.648 214.844C210.648 214.156 210.776 213.576 211.032 213.104C211.296 212.624 211.648 212.26 212.088 212.012C212.528 211.764 213.02 211.64 213.564 211.64C214.164 211.64 214.7 211.776 215.172 212.048C215.652 212.312 216.028 212.684 216.3 213.164C216.572 213.644 216.708 214.204 216.708 214.844C216.708 215.476 216.572 216.036 216.3 216.524C216.028 217.004 215.652 217.38 215.172 217.652C214.7 217.924 214.164 218.06 213.564 218.06ZM210.312 218V209.096H211.164V213.56L211.044 214.832L211.128 216.104V218H210.312ZM213.504 217.304C213.952 217.304 214.352 217.204 214.704 217.004C215.056 216.796 215.336 216.508 215.544 216.14C215.752 215.764 215.856 215.332 215.856 214.844C215.856 214.348 215.752 213.916 215.544 213.548C215.336 213.18 215.056 212.896 214.704 212.696C214.352 212.488 213.952 212.384 213.504 212.384C213.056 212.384 212.652 212.488 212.292 212.696C211.94 212.896 211.66 213.18 211.452 213.548C211.252 213.916 211.152 214.348 211.152 214.844C211.152 215.332 211.252 215.764 211.452 216.14C211.66 216.508 211.94 216.796 212.292 217.004C212.652 217.204 213.056 217.304 213.504 217.304ZM220.077 218.06C219.557 218.06 219.065 217.988 218.601 217.844C218.137 217.692 217.773 217.504 217.509 217.28L217.893 216.608C218.149 216.8 218.477 216.968 218.877 217.112C219.277 217.248 219.697 217.316 220.137 217.316C220.737 217.316 221.169 217.224 221.433 217.04C221.697 216.848 221.829 216.596 221.829 216.284C221.829 216.052 221.753 215.872 221.601 215.744C221.457 215.608 221.265 215.508 221.025 215.444C220.785 215.372 220.517 215.312 220.221 215.264C219.925 215.216 219.629 215.16 219.333 215.096C219.045 215.032 218.781 214.94 218.541 214.82C218.301 214.692 218.105 214.52 217.953 214.304C217.809 214.088 217.737 213.8 217.737 213.44C217.737 213.096 217.833 212.788 218.025 212.516C218.217 212.244 218.497 212.032 218.865 211.88C219.241 211.72 219.697 211.64 220.233 211.64C220.641 211.64 221.049 211.696 221.457 211.808C221.865 211.912 222.201 212.052 222.465 212.228L222.093 212.912C221.813 212.72 221.513 212.584 221.193 212.504C220.873 212.416 220.553 212.372 220.233 212.372C219.665 212.372 219.245 212.472 218.973 212.672C218.709 212.864 218.577 213.112 218.577 213.416C218.577 213.656 218.649 213.844 218.793 213.98C218.945 214.116 219.141 214.224 219.381 214.304C219.629 214.376 219.897 214.436 220.185 214.484C220.481 214.532 220.773 214.592 221.061 214.664C221.357 214.728 221.625 214.82 221.865 214.94C222.113 215.052 222.309 215.216 222.453 215.432C222.605 215.64 222.681 215.916 222.681 216.26C222.681 216.628 222.577 216.948 222.369 217.22C222.169 217.484 221.873 217.692 221.481 217.844C221.097 217.988 220.629 218.06 220.077 218.06Z" fill="white" />
                            <path d="M309.322 199L313.162 190.6H314.038L317.878 199H316.942L313.414 191.116H313.774L310.246 199H309.322ZM310.834 196.756L311.098 196.036H315.982L316.246 196.756H310.834ZM320.661 199.06C320.141 199.06 319.649 198.988 319.185 198.844C318.721 198.692 318.357 198.504 318.093 198.28L318.477 197.608C318.733 197.8 319.061 197.968 319.461 198.112C319.861 198.248 320.281 198.316 320.721 198.316C321.321 198.316 321.753 198.224 322.017 198.04C322.281 197.848 322.413 197.596 322.413 197.284C322.413 197.052 322.337 196.872 322.185 196.744C322.041 196.608 321.849 196.508 321.609 196.444C321.369 196.372 321.101 196.312 320.805 196.264C320.509 196.216 320.213 196.16 319.917 196.096C319.629 196.032 319.365 195.94 319.125 195.82C318.885 195.692 318.689 195.52 318.537 195.304C318.393 195.088 318.321 194.8 318.321 194.44C318.321 194.096 318.417 193.788 318.609 193.516C318.801 193.244 319.081 193.032 319.449 192.88C319.825 192.72 320.281 192.64 320.817 192.64C321.225 192.64 321.633 192.696 322.041 192.808C322.449 192.912 322.785 193.052 323.049 193.228L322.677 193.912C322.397 193.72 322.097 193.584 321.777 193.504C321.457 193.416 321.137 193.372 320.817 193.372C320.249 193.372 319.829 193.472 319.557 193.672C319.293 193.864 319.161 194.112 319.161 194.416C319.161 194.656 319.233 194.844 319.377 194.98C319.529 195.116 319.725 195.224 319.965 195.304C320.213 195.376 320.481 195.436 320.769 195.484C321.065 195.532 321.357 195.592 321.645 195.664C321.941 195.728 322.209 195.82 322.449 195.94C322.697 196.052 322.893 196.216 323.037 196.432C323.189 196.64 323.265 196.916 323.265 197.26C323.265 197.628 323.161 197.948 322.953 198.22C322.753 198.484 322.457 198.692 322.065 198.844C321.681 198.988 321.213 199.06 320.661 199.06ZM327.384 199.06C326.76 199.06 326.2 198.924 325.704 198.652C325.216 198.372 324.832 197.992 324.552 197.512C324.272 197.024 324.132 196.468 324.132 195.844C324.132 195.212 324.272 194.656 324.552 194.176C324.832 193.696 325.216 193.32 325.704 193.048C326.2 192.776 326.76 192.64 327.384 192.64C327.92 192.64 328.404 192.744 328.836 192.952C329.268 193.16 329.608 193.472 329.856 193.888L329.22 194.32C329.004 194 328.736 193.764 328.416 193.612C328.096 193.46 327.748 193.384 327.372 193.384C326.924 193.384 326.52 193.488 326.16 193.696C325.8 193.896 325.516 194.18 325.308 194.548C325.1 194.916 324.996 195.348 324.996 195.844C324.996 196.34 325.1 196.772 325.308 197.14C325.516 197.508 325.8 197.796 326.16 198.004C326.52 198.204 326.924 198.304 327.372 198.304C327.748 198.304 328.096 198.228 328.416 198.076C328.736 197.924 329.004 197.692 329.22 197.38L329.856 197.812C329.608 198.22 329.268 198.532 328.836 198.748C328.404 198.956 327.92 199.06 327.384 199.06ZM334.04 199.06C333.384 199.06 332.808 198.924 332.312 198.652C331.816 198.372 331.428 197.992 331.148 197.512C330.868 197.024 330.728 196.468 330.728 195.844C330.728 195.22 330.86 194.668 331.124 194.188C331.396 193.708 331.764 193.332 332.228 193.06C332.7 192.78 333.228 192.64 333.812 192.64C334.404 192.64 334.928 192.776 335.384 193.048C335.848 193.312 336.212 193.688 336.476 194.176C336.74 194.656 336.872 195.212 336.872 195.844C336.872 195.884 336.868 195.928 336.86 195.976C336.86 196.016 336.86 196.06 336.86 196.108H331.376V195.472H336.404L336.068 195.724C336.068 195.268 335.968 194.864 335.768 194.512C335.576 194.152 335.312 193.872 334.976 193.672C334.64 193.472 334.252 193.372 333.812 193.372C333.38 193.372 332.992 193.472 332.648 193.672C332.304 193.872 332.036 194.152 331.844 194.512C331.652 194.872 331.556 195.284 331.556 195.748V195.88C331.556 196.36 331.66 196.784 331.868 197.152C332.084 197.512 332.38 197.796 332.756 198.004C333.14 198.204 333.576 198.304 334.064 198.304C334.448 198.304 334.804 198.236 335.132 198.1C335.468 197.964 335.756 197.756 335.996 197.476L336.476 198.028C336.196 198.364 335.844 198.62 335.42 198.796C335.004 198.972 334.544 199.06 334.04 199.06ZM338.547 199V190.096H339.399V199H338.547ZM341.709 199V190.096H342.561V199H341.709ZM348.82 199V197.608L348.784 197.38V195.052C348.784 194.516 348.632 194.104 348.328 193.816C348.032 193.528 347.588 193.384 346.996 193.384C346.588 193.384 346.2 193.452 345.832 193.588C345.464 193.724 345.152 193.904 344.896 194.128L344.512 193.492C344.832 193.22 345.216 193.012 345.664 192.868C346.112 192.716 346.584 192.64 347.08 192.64C347.896 192.64 348.524 192.844 348.964 193.252C349.412 193.652 349.636 194.264 349.636 195.088V199H348.82ZM346.648 199.06C346.176 199.06 345.764 198.984 345.412 198.832C345.068 198.672 344.804 198.456 344.62 198.184C344.436 197.904 344.344 197.584 344.344 197.224C344.344 196.896 344.42 196.6 344.572 196.336C344.732 196.064 344.988 195.848 345.34 195.688C345.7 195.52 346.18 195.436 346.78 195.436H348.952V196.072H346.804C346.196 196.072 345.772 196.18 345.532 196.396C345.3 196.612 345.184 196.88 345.184 197.2C345.184 197.56 345.324 197.848 345.604 198.064C345.884 198.28 346.276 198.388 346.78 198.388C347.26 198.388 347.672 198.28 348.016 198.064C348.368 197.84 348.624 197.52 348.784 197.104L348.976 197.692C348.816 198.108 348.536 198.44 348.136 198.688C347.744 198.936 347.248 199.06 346.648 199.06ZM314.766 207.668H319.206V208.436H314.766V207.668ZM314.862 212H313.974V203.6H319.734V204.368H314.862V212ZM323.685 212.06C323.077 212.06 322.529 211.924 322.041 211.652C321.561 211.372 321.181 210.992 320.901 210.512C320.621 210.024 320.481 209.468 320.481 208.844C320.481 208.212 320.621 207.656 320.901 207.176C321.181 206.696 321.561 206.32 322.041 206.048C322.521 205.776 323.069 205.64 323.685 205.64C324.309 205.64 324.861 205.776 325.341 206.048C325.829 206.32 326.209 206.696 326.481 207.176C326.761 207.656 326.901 208.212 326.901 208.844C326.901 209.468 326.761 210.024 326.481 210.512C326.209 210.992 325.829 211.372 325.341 211.652C324.853 211.924 324.301 212.06 323.685 212.06ZM323.685 211.304C324.141 211.304 324.545 211.204 324.897 211.004C325.249 210.796 325.525 210.508 325.725 210.14C325.933 209.764 326.037 209.332 326.037 208.844C326.037 208.348 325.933 207.916 325.725 207.548C325.525 207.18 325.249 206.896 324.897 206.696C324.545 206.488 324.145 206.384 323.697 206.384C323.249 206.384 322.849 206.488 322.497 206.696C322.145 206.896 321.865 207.18 321.657 207.548C321.449 207.916 321.345 208.348 321.345 208.844C321.345 209.332 321.449 209.764 321.657 210.14C321.865 210.508 322.145 210.796 322.497 211.004C322.849 211.204 323.245 211.304 323.685 211.304ZM328.581 212V205.7H329.397V207.416L329.313 207.116C329.489 206.636 329.785 206.272 330.201 206.024C330.617 205.768 331.133 205.64 331.749 205.64V206.468C331.717 206.468 331.685 206.468 331.653 206.468C331.621 206.46 331.589 206.456 331.557 206.456C330.893 206.456 330.373 206.66 329.997 207.068C329.621 207.468 329.433 208.04 329.433 208.784V212H328.581ZM335.873 214.388C335.297 214.388 334.745 214.304 334.217 214.136C333.689 213.968 333.261 213.728 332.933 213.416L333.365 212.768C333.661 213.032 334.025 213.24 334.457 213.392C334.897 213.552 335.361 213.632 335.849 213.632C336.649 213.632 337.237 213.444 337.613 213.068C337.989 212.7 338.177 212.124 338.177 211.34V209.768L338.297 208.688L338.213 207.608V205.7H339.029V211.232C339.029 212.32 338.761 213.116 338.225 213.62C337.697 214.132 336.913 214.388 335.873 214.388ZM335.717 211.76C335.117 211.76 334.577 211.632 334.097 211.376C333.617 211.112 333.237 210.748 332.957 210.284C332.685 209.82 332.549 209.288 332.549 208.688C332.549 208.088 332.685 207.56 332.957 207.104C333.237 206.64 333.617 206.28 334.097 206.024C334.577 205.768 335.117 205.64 335.717 205.64C336.277 205.64 336.781 205.756 337.229 205.988C337.677 206.22 338.033 206.564 338.297 207.02C338.561 207.476 338.693 208.032 338.693 208.688C338.693 209.344 338.561 209.9 338.297 210.356C338.033 210.812 337.677 211.16 337.229 211.4C336.781 211.64 336.277 211.76 335.717 211.76ZM335.801 211.004C336.265 211.004 336.677 210.908 337.037 210.716C337.397 210.516 337.681 210.244 337.889 209.9C338.097 209.548 338.201 209.144 338.201 208.688C338.201 208.232 338.097 207.832 337.889 207.488C337.681 207.144 337.397 206.876 337.037 206.684C336.677 206.484 336.265 206.384 335.801 206.384C335.345 206.384 334.933 206.484 334.565 206.684C334.205 206.876 333.921 207.144 333.713 207.488C333.513 207.832 333.413 208.232 333.413 208.688C333.413 209.144 333.513 209.548 333.713 209.9C333.921 210.244 334.205 210.516 334.565 210.716C334.933 210.908 335.345 211.004 335.801 211.004ZM344.015 212.06C343.359 212.06 342.783 211.924 342.287 211.652C341.791 211.372 341.403 210.992 341.123 210.512C340.843 210.024 340.703 209.468 340.703 208.844C340.703 208.22 340.835 207.668 341.099 207.188C341.371 206.708 341.739 206.332 342.203 206.06C342.675 205.78 343.203 205.64 343.787 205.64C344.379 205.64 344.903 205.776 345.359 206.048C345.823 206.312 346.187 206.688 346.451 207.176C346.715 207.656 346.847 208.212 346.847 208.844C346.847 208.884 346.843 208.928 346.835 208.976C346.835 209.016 346.835 209.06 346.835 209.108H341.351V208.472H346.379L346.043 208.724C346.043 208.268 345.943 207.864 345.743 207.512C345.551 207.152 345.287 206.872 344.951 206.672C344.615 206.472 344.227 206.372 343.787 206.372C343.355 206.372 342.967 206.472 342.623 206.672C342.279 206.872 342.011 207.152 341.819 207.512C341.627 207.872 341.531 208.284 341.531 208.748V208.88C341.531 209.36 341.635 209.784 341.843 210.152C342.059 210.512 342.355 210.796 342.731 211.004C343.115 211.204 343.551 211.304 344.039 211.304C344.423 211.304 344.779 211.236 345.107 211.1C345.443 210.964 345.731 210.756 345.971 210.476L346.451 211.028C346.171 211.364 345.819 211.62 345.395 211.796C344.979 211.972 344.519 212.06 344.015 212.06Z" fill="white" />
                            <path d="M309.322 35L313.162 26.6H314.038L317.878 35H316.942L313.414 27.116H313.774L310.246 35H309.322ZM310.834 32.756L311.098 32.036H315.982L316.246 32.756H310.834ZM320.661 35.06C320.141 35.06 319.649 34.988 319.185 34.844C318.721 34.692 318.357 34.504 318.093 34.28L318.477 33.608C318.733 33.8 319.061 33.968 319.461 34.112C319.861 34.248 320.281 34.316 320.721 34.316C321.321 34.316 321.753 34.224 322.017 34.04C322.281 33.848 322.413 33.596 322.413 33.284C322.413 33.052 322.337 32.872 322.185 32.744C322.041 32.608 321.849 32.508 321.609 32.444C321.369 32.372 321.101 32.312 320.805 32.264C320.509 32.216 320.213 32.16 319.917 32.096C319.629 32.032 319.365 31.94 319.125 31.82C318.885 31.692 318.689 31.52 318.537 31.304C318.393 31.088 318.321 30.8 318.321 30.44C318.321 30.096 318.417 29.788 318.609 29.516C318.801 29.244 319.081 29.032 319.449 28.88C319.825 28.72 320.281 28.64 320.817 28.64C321.225 28.64 321.633 28.696 322.041 28.808C322.449 28.912 322.785 29.052 323.049 29.228L322.677 29.912C322.397 29.72 322.097 29.584 321.777 29.504C321.457 29.416 321.137 29.372 320.817 29.372C320.249 29.372 319.829 29.472 319.557 29.672C319.293 29.864 319.161 30.112 319.161 30.416C319.161 30.656 319.233 30.844 319.377 30.98C319.529 31.116 319.725 31.224 319.965 31.304C320.213 31.376 320.481 31.436 320.769 31.484C321.065 31.532 321.357 31.592 321.645 31.664C321.941 31.728 322.209 31.82 322.449 31.94C322.697 32.052 322.893 32.216 323.037 32.432C323.189 32.64 323.265 32.916 323.265 33.26C323.265 33.628 323.161 33.948 322.953 34.22C322.753 34.484 322.457 34.692 322.065 34.844C321.681 34.988 321.213 35.06 320.661 35.06ZM327.384 35.06C326.76 35.06 326.2 34.924 325.704 34.652C325.216 34.372 324.832 33.992 324.552 33.512C324.272 33.024 324.132 32.468 324.132 31.844C324.132 31.212 324.272 30.656 324.552 30.176C324.832 29.696 325.216 29.32 325.704 29.048C326.2 28.776 326.76 28.64 327.384 28.64C327.92 28.64 328.404 28.744 328.836 28.952C329.268 29.16 329.608 29.472 329.856 29.888L329.22 30.32C329.004 30 328.736 29.764 328.416 29.612C328.096 29.46 327.748 29.384 327.372 29.384C326.924 29.384 326.52 29.488 326.16 29.696C325.8 29.896 325.516 30.18 325.308 30.548C325.1 30.916 324.996 31.348 324.996 31.844C324.996 32.34 325.1 32.772 325.308 33.14C325.516 33.508 325.8 33.796 326.16 34.004C326.52 34.204 326.924 34.304 327.372 34.304C327.748 34.304 328.096 34.228 328.416 34.076C328.736 33.924 329.004 33.692 329.22 33.38L329.856 33.812C329.608 34.22 329.268 34.532 328.836 34.748C328.404 34.956 327.92 35.06 327.384 35.06ZM334.04 35.06C333.384 35.06 332.808 34.924 332.312 34.652C331.816 34.372 331.428 33.992 331.148 33.512C330.868 33.024 330.728 32.468 330.728 31.844C330.728 31.22 330.86 30.668 331.124 30.188C331.396 29.708 331.764 29.332 332.228 29.06C332.7 28.78 333.228 28.64 333.812 28.64C334.404 28.64 334.928 28.776 335.384 29.048C335.848 29.312 336.212 29.688 336.476 30.176C336.74 30.656 336.872 31.212 336.872 31.844C336.872 31.884 336.868 31.928 336.86 31.976C336.86 32.016 336.86 32.06 336.86 32.108H331.376V31.472H336.404L336.068 31.724C336.068 31.268 335.968 30.864 335.768 30.512C335.576 30.152 335.312 29.872 334.976 29.672C334.64 29.472 334.252 29.372 333.812 29.372C333.38 29.372 332.992 29.472 332.648 29.672C332.304 29.872 332.036 30.152 331.844 30.512C331.652 30.872 331.556 31.284 331.556 31.748V31.88C331.556 32.36 331.66 32.784 331.868 33.152C332.084 33.512 332.38 33.796 332.756 34.004C333.14 34.204 333.576 34.304 334.064 34.304C334.448 34.304 334.804 34.236 335.132 34.1C335.468 33.964 335.756 33.756 335.996 33.476L336.476 34.028C336.196 34.364 335.844 34.62 335.42 34.796C335.004 34.972 334.544 35.06 334.04 35.06ZM338.547 35V26.096H339.399V35H338.547ZM341.709 35V26.096H342.561V35H341.709ZM348.82 35V33.608L348.784 33.38V31.052C348.784 30.516 348.632 30.104 348.328 29.816C348.032 29.528 347.588 29.384 346.996 29.384C346.588 29.384 346.2 29.452 345.832 29.588C345.464 29.724 345.152 29.904 344.896 30.128L344.512 29.492C344.832 29.22 345.216 29.012 345.664 28.868C346.112 28.716 346.584 28.64 347.08 28.64C347.896 28.64 348.524 28.844 348.964 29.252C349.412 29.652 349.636 30.264 349.636 31.088V35H348.82ZM346.648 35.06C346.176 35.06 345.764 34.984 345.412 34.832C345.068 34.672 344.804 34.456 344.62 34.184C344.436 33.904 344.344 33.584 344.344 33.224C344.344 32.896 344.42 32.6 344.572 32.336C344.732 32.064 344.988 31.848 345.34 31.688C345.7 31.52 346.18 31.436 346.78 31.436H348.952V32.072H346.804C346.196 32.072 345.772 32.18 345.532 32.396C345.3 32.612 345.184 32.88 345.184 33.2C345.184 33.56 345.324 33.848 345.604 34.064C345.884 34.28 346.276 34.388 346.78 34.388C347.26 34.388 347.672 34.28 348.016 34.064C348.368 33.84 348.624 33.52 348.784 33.104L348.976 33.692C348.816 34.108 348.536 34.44 348.136 34.688C347.744 34.936 347.248 35.06 346.648 35.06ZM308.867 43.356H313.307V44.112H308.867V43.356ZM308.963 47.232H314.015V48H308.075V39.6H313.835V40.368H308.963V47.232ZM319.078 41.64C319.59 41.64 320.038 41.74 320.422 41.94C320.814 42.132 321.118 42.428 321.334 42.828C321.558 43.228 321.67 43.732 321.67 44.34V48H320.818V44.424C320.818 43.76 320.65 43.26 320.314 42.924C319.986 42.58 319.522 42.408 318.922 42.408C318.474 42.408 318.082 42.5 317.746 42.684C317.418 42.86 317.162 43.12 316.978 43.464C316.802 43.8 316.714 44.208 316.714 44.688V48H315.862V41.7H316.678V43.428L316.546 43.104C316.746 42.648 317.066 42.292 317.506 42.036C317.946 41.772 318.47 41.64 319.078 41.64ZM326.599 50.388C326.023 50.388 325.471 50.304 324.943 50.136C324.415 49.968 323.987 49.728 323.659 49.416L324.091 48.768C324.387 49.032 324.751 49.24 325.183 49.392C325.623 49.552 326.087 49.632 326.575 49.632C327.375 49.632 327.963 49.444 328.339 49.068C328.715 48.7 328.903 48.124 328.903 47.34V45.768L329.023 44.688L328.939 43.608V41.7H329.755V47.232C329.755 48.32 329.487 49.116 328.951 49.62C328.423 50.132 327.639 50.388 326.599 50.388ZM326.443 47.76C325.843 47.76 325.303 47.632 324.823 47.376C324.343 47.112 323.963 46.748 323.683 46.284C323.411 45.82 323.275 45.288 323.275 44.688C323.275 44.088 323.411 43.56 323.683 43.104C323.963 42.64 324.343 42.28 324.823 42.024C325.303 41.768 325.843 41.64 326.443 41.64C327.003 41.64 327.507 41.756 327.955 41.988C328.403 42.22 328.759 42.564 329.023 43.02C329.287 43.476 329.419 44.032 329.419 44.688C329.419 45.344 329.287 45.9 329.023 46.356C328.759 46.812 328.403 47.16 327.955 47.4C327.507 47.64 327.003 47.76 326.443 47.76ZM326.527 47.004C326.991 47.004 327.403 46.908 327.763 46.716C328.123 46.516 328.407 46.244 328.615 45.9C328.823 45.548 328.927 45.144 328.927 44.688C328.927 44.232 328.823 43.832 328.615 43.488C328.407 43.144 328.123 42.876 327.763 42.684C327.403 42.484 326.991 42.384 326.527 42.384C326.071 42.384 325.659 42.484 325.291 42.684C324.931 42.876 324.647 43.144 324.439 43.488C324.239 43.832 324.139 44.232 324.139 44.688C324.139 45.144 324.239 45.548 324.439 45.9C324.647 46.244 324.931 46.516 325.291 46.716C325.659 46.908 326.071 47.004 326.527 47.004ZM336.014 48V46.608L335.978 46.38V44.052C335.978 43.516 335.826 43.104 335.522 42.816C335.226 42.528 334.782 42.384 334.19 42.384C333.782 42.384 333.394 42.452 333.026 42.588C332.658 42.724 332.346 42.904 332.09 43.128L331.706 42.492C332.026 42.22 332.41 42.012 332.858 41.868C333.306 41.716 333.778 41.64 334.274 41.64C335.09 41.64 335.718 41.844 336.158 42.252C336.606 42.652 336.83 43.264 336.83 44.088V48H336.014ZM333.842 48.06C333.37 48.06 332.958 47.984 332.606 47.832C332.262 47.672 331.998 47.456 331.814 47.184C331.63 46.904 331.538 46.584 331.538 46.224C331.538 45.896 331.614 45.6 331.766 45.336C331.926 45.064 332.182 44.848 332.534 44.688C332.894 44.52 333.374 44.436 333.974 44.436H336.146V45.072H333.998C333.39 45.072 332.966 45.18 332.726 45.396C332.494 45.612 332.378 45.88 332.378 46.2C332.378 46.56 332.518 46.848 332.798 47.064C333.078 47.28 333.47 47.388 333.974 47.388C334.454 47.388 334.866 47.28 335.21 47.064C335.562 46.84 335.818 46.52 335.978 46.104L336.17 46.692C336.01 47.108 335.73 47.44 335.33 47.688C334.938 47.936 334.442 48.06 333.842 48.06ZM341.772 50.388C341.196 50.388 340.644 50.304 340.116 50.136C339.588 49.968 339.16 49.728 338.832 49.416L339.264 48.768C339.56 49.032 339.924 49.24 340.356 49.392C340.796 49.552 341.26 49.632 341.748 49.632C342.548 49.632 343.136 49.444 343.512 49.068C343.888 48.7 344.076 48.124 344.076 47.34V45.768L344.196 44.688L344.112 43.608V41.7H344.928V47.232C344.928 48.32 344.66 49.116 344.124 49.62C343.596 50.132 342.812 50.388 341.772 50.388ZM341.616 47.76C341.016 47.76 340.476 47.632 339.996 47.376C339.516 47.112 339.136 46.748 338.856 46.284C338.584 45.82 338.448 45.288 338.448 44.688C338.448 44.088 338.584 43.56 338.856 43.104C339.136 42.64 339.516 42.28 339.996 42.024C340.476 41.768 341.016 41.64 341.616 41.64C342.176 41.64 342.68 41.756 343.128 41.988C343.576 42.22 343.932 42.564 344.196 43.02C344.46 43.476 344.592 44.032 344.592 44.688C344.592 45.344 344.46 45.9 344.196 46.356C343.932 46.812 343.576 47.16 343.128 47.4C342.68 47.64 342.176 47.76 341.616 47.76ZM341.7 47.004C342.164 47.004 342.576 46.908 342.936 46.716C343.296 46.516 343.58 46.244 343.788 45.9C343.996 45.548 344.1 45.144 344.1 44.688C344.1 44.232 343.996 43.832 343.788 43.488C343.58 43.144 343.296 42.876 342.936 42.684C342.576 42.484 342.164 42.384 341.7 42.384C341.244 42.384 340.832 42.484 340.464 42.684C340.104 42.876 339.82 43.144 339.612 43.488C339.412 43.832 339.312 44.232 339.312 44.688C339.312 45.144 339.412 45.548 339.612 45.9C339.82 46.244 340.104 46.516 340.464 46.716C340.832 46.908 341.244 47.004 341.7 47.004ZM349.915 48.06C349.259 48.06 348.683 47.924 348.187 47.652C347.691 47.372 347.303 46.992 347.023 46.512C346.743 46.024 346.603 45.468 346.603 44.844C346.603 44.22 346.735 43.668 346.999 43.188C347.271 42.708 347.639 42.332 348.103 42.06C348.575 41.78 349.103 41.64 349.687 41.64C350.279 41.64 350.803 41.776 351.259 42.048C351.723 42.312 352.087 42.688 352.351 43.176C352.615 43.656 352.747 44.212 352.747 44.844C352.747 44.884 352.743 44.928 352.735 44.976C352.735 45.016 352.735 45.06 352.735 45.108H347.251V44.472H352.279L351.943 44.724C351.943 44.268 351.843 43.864 351.643 43.512C351.451 43.152 351.187 42.872 350.851 42.672C350.515 42.472 350.127 42.372 349.687 42.372C349.255 42.372 348.867 42.472 348.523 42.672C348.179 42.872 347.911 43.152 347.719 43.512C347.527 43.872 347.431 44.284 347.431 44.748V44.88C347.431 45.36 347.535 45.784 347.743 46.152C347.959 46.512 348.255 46.796 348.631 47.004C349.015 47.204 349.451 47.304 349.939 47.304C350.323 47.304 350.679 47.236 351.007 47.1C351.343 46.964 351.631 46.756 351.871 46.476L352.351 47.028C352.071 47.364 351.719 47.62 351.295 47.796C350.879 47.972 350.419 48.06 349.915 48.06Z" fill="white" />
                            <path d="M421.322 112L425.162 103.6H426.038L429.878 112H428.942L425.414 104.116H425.774L422.246 112H421.322ZM422.834 109.756L423.098 109.036H427.982L428.246 109.756H422.834ZM432.661 112.06C432.141 112.06 431.649 111.988 431.185 111.844C430.721 111.692 430.357 111.504 430.093 111.28L430.477 110.608C430.733 110.8 431.061 110.968 431.461 111.112C431.861 111.248 432.281 111.316 432.721 111.316C433.321 111.316 433.753 111.224 434.017 111.04C434.281 110.848 434.413 110.596 434.413 110.284C434.413 110.052 434.337 109.872 434.185 109.744C434.041 109.608 433.849 109.508 433.609 109.444C433.369 109.372 433.101 109.312 432.805 109.264C432.509 109.216 432.213 109.16 431.917 109.096C431.629 109.032 431.365 108.94 431.125 108.82C430.885 108.692 430.689 108.52 430.537 108.304C430.393 108.088 430.321 107.8 430.321 107.44C430.321 107.096 430.417 106.788 430.609 106.516C430.801 106.244 431.081 106.032 431.449 105.88C431.825 105.72 432.281 105.64 432.817 105.64C433.225 105.64 433.633 105.696 434.041 105.808C434.449 105.912 434.785 106.052 435.049 106.228L434.677 106.912C434.397 106.72 434.097 106.584 433.777 106.504C433.457 106.416 433.137 106.372 432.817 106.372C432.249 106.372 431.829 106.472 431.557 106.672C431.293 106.864 431.161 107.112 431.161 107.416C431.161 107.656 431.233 107.844 431.377 107.98C431.529 108.116 431.725 108.224 431.965 108.304C432.213 108.376 432.481 108.436 432.769 108.484C433.065 108.532 433.357 108.592 433.645 108.664C433.941 108.728 434.209 108.82 434.449 108.94C434.697 109.052 434.893 109.216 435.037 109.432C435.189 109.64 435.265 109.916 435.265 110.26C435.265 110.628 435.161 110.948 434.953 111.22C434.753 111.484 434.457 111.692 434.065 111.844C433.681 111.988 433.213 112.06 432.661 112.06ZM439.384 112.06C438.76 112.06 438.2 111.924 437.704 111.652C437.216 111.372 436.832 110.992 436.552 110.512C436.272 110.024 436.132 109.468 436.132 108.844C436.132 108.212 436.272 107.656 436.552 107.176C436.832 106.696 437.216 106.32 437.704 106.048C438.2 105.776 438.76 105.64 439.384 105.64C439.92 105.64 440.404 105.744 440.836 105.952C441.268 106.16 441.608 106.472 441.856 106.888L441.22 107.32C441.004 107 440.736 106.764 440.416 106.612C440.096 106.46 439.748 106.384 439.372 106.384C438.924 106.384 438.52 106.488 438.16 106.696C437.8 106.896 437.516 107.18 437.308 107.548C437.1 107.916 436.996 108.348 436.996 108.844C436.996 109.34 437.1 109.772 437.308 110.14C437.516 110.508 437.8 110.796 438.16 111.004C438.52 111.204 438.924 111.304 439.372 111.304C439.748 111.304 440.096 111.228 440.416 111.076C440.736 110.924 441.004 110.692 441.22 110.38L441.856 110.812C441.608 111.22 441.268 111.532 440.836 111.748C440.404 111.956 439.92 112.06 439.384 112.06ZM446.04 112.06C445.384 112.06 444.808 111.924 444.312 111.652C443.816 111.372 443.428 110.992 443.148 110.512C442.868 110.024 442.728 109.468 442.728 108.844C442.728 108.22 442.86 107.668 443.124 107.188C443.396 106.708 443.764 106.332 444.228 106.06C444.7 105.78 445.228 105.64 445.812 105.64C446.404 105.64 446.928 105.776 447.384 106.048C447.848 106.312 448.212 106.688 448.476 107.176C448.74 107.656 448.872 108.212 448.872 108.844C448.872 108.884 448.868 108.928 448.86 108.976C448.86 109.016 448.86 109.06 448.86 109.108H443.376V108.472H448.404L448.068 108.724C448.068 108.268 447.968 107.864 447.768 107.512C447.576 107.152 447.312 106.872 446.976 106.672C446.64 106.472 446.252 106.372 445.812 106.372C445.38 106.372 444.992 106.472 444.648 106.672C444.304 106.872 444.036 107.152 443.844 107.512C443.652 107.872 443.556 108.284 443.556 108.748V108.88C443.556 109.36 443.66 109.784 443.868 110.152C444.084 110.512 444.38 110.796 444.756 111.004C445.14 111.204 445.576 111.304 446.064 111.304C446.448 111.304 446.804 111.236 447.132 111.1C447.468 110.964 447.756 110.756 447.996 110.476L448.476 111.028C448.196 111.364 447.844 111.62 447.42 111.796C447.004 111.972 446.544 112.06 446.04 112.06ZM450.547 112V103.096H451.399V112H450.547ZM453.709 112V103.096H454.561V112H453.709ZM460.82 112V110.608L460.784 110.38V108.052C460.784 107.516 460.632 107.104 460.328 106.816C460.032 106.528 459.588 106.384 458.996 106.384C458.588 106.384 458.2 106.452 457.832 106.588C457.464 106.724 457.152 106.904 456.896 107.128L456.512 106.492C456.832 106.22 457.216 106.012 457.664 105.868C458.112 105.716 458.584 105.64 459.08 105.64C459.896 105.64 460.524 105.844 460.964 106.252C461.412 106.652 461.636 107.264 461.636 108.088V112H460.82ZM458.648 112.06C458.176 112.06 457.764 111.984 457.412 111.832C457.068 111.672 456.804 111.456 456.62 111.184C456.436 110.904 456.344 110.584 456.344 110.224C456.344 109.896 456.42 109.6 456.572 109.336C456.732 109.064 456.988 108.848 457.34 108.688C457.7 108.52 458.18 108.436 458.78 108.436H460.952V109.072H458.804C458.196 109.072 457.772 109.18 457.532 109.396C457.3 109.612 457.184 109.88 457.184 110.2C457.184 110.56 457.324 110.848 457.604 111.064C457.884 111.28 458.276 111.388 458.78 111.388C459.26 111.388 459.672 111.28 460.016 111.064C460.368 110.84 460.624 110.52 460.784 110.104L460.976 110.692C460.816 111.108 460.536 111.44 460.136 111.688C459.744 111.936 459.248 112.06 458.648 112.06ZM422.344 125.072C421.72 125.072 421.12 124.972 420.544 124.772C419.976 124.564 419.536 124.3 419.224 123.98L419.572 123.296C419.868 123.584 420.264 123.828 420.76 124.028C421.264 124.22 421.792 124.316 422.344 124.316C422.872 124.316 423.3 124.252 423.628 124.124C423.964 123.988 424.208 123.808 424.36 123.584C424.52 123.36 424.6 123.112 424.6 122.84C424.6 122.512 424.504 122.248 424.312 122.048C424.128 121.848 423.884 121.692 423.58 121.58C423.276 121.46 422.94 121.356 422.572 121.268C422.204 121.18 421.836 121.088 421.468 120.992C421.1 120.888 420.76 120.752 420.448 120.584C420.144 120.416 419.896 120.196 419.704 119.924C419.52 119.644 419.428 119.28 419.428 118.832C419.428 118.416 419.536 118.036 419.752 117.692C419.976 117.34 420.316 117.06 420.772 116.852C421.228 116.636 421.812 116.528 422.524 116.528C422.996 116.528 423.464 116.596 423.928 116.732C424.392 116.86 424.792 117.04 425.128 117.272L424.828 117.98C424.468 117.74 424.084 117.564 423.676 117.452C423.276 117.34 422.888 117.284 422.512 117.284C422.008 117.284 421.592 117.352 421.264 117.488C420.936 117.624 420.692 117.808 420.532 118.04C420.38 118.264 420.304 118.52 420.304 118.808C420.304 119.136 420.396 119.4 420.58 119.6C420.772 119.8 421.02 119.956 421.324 120.068C421.636 120.18 421.976 120.28 422.344 120.368C422.712 120.456 423.076 120.552 423.436 120.656C423.804 120.76 424.14 120.896 424.444 121.064C424.756 121.224 425.004 121.44 425.188 121.712C425.38 121.984 425.476 122.34 425.476 122.78C425.476 123.188 425.364 123.568 425.14 123.92C424.916 124.264 424.572 124.544 424.108 124.76C423.652 124.968 423.064 125.072 422.344 125.072ZM429.163 125.06C428.571 125.06 428.115 124.9 427.795 124.58C427.475 124.26 427.315 123.808 427.315 123.224V117.308H428.167V123.176C428.167 123.544 428.259 123.828 428.443 124.028C428.635 124.228 428.907 124.328 429.259 124.328C429.635 124.328 429.947 124.22 430.195 124.004L430.495 124.616C430.327 124.768 430.123 124.88 429.883 124.952C429.651 125.024 429.411 125.06 429.163 125.06ZM426.187 119.408V118.7H430.087V119.408H426.187ZM435.934 125V123.608L435.898 123.38V121.052C435.898 120.516 435.746 120.104 435.442 119.816C435.146 119.528 434.702 119.384 434.11 119.384C433.702 119.384 433.314 119.452 432.946 119.588C432.578 119.724 432.266 119.904 432.01 120.128L431.626 119.492C431.946 119.22 432.33 119.012 432.778 118.868C433.226 118.716 433.698 118.64 434.194 118.64C435.01 118.64 435.638 118.844 436.078 119.252C436.526 119.652 436.75 120.264 436.75 121.088V125H435.934ZM433.762 125.06C433.29 125.06 432.878 124.984 432.526 124.832C432.182 124.672 431.918 124.456 431.734 124.184C431.55 123.904 431.458 123.584 431.458 123.224C431.458 122.896 431.534 122.6 431.686 122.336C431.846 122.064 432.102 121.848 432.454 121.688C432.814 121.52 433.294 121.436 433.894 121.436H436.066V122.072H433.918C433.31 122.072 432.886 122.18 432.646 122.396C432.414 122.612 432.298 122.88 432.298 123.2C432.298 123.56 432.438 123.848 432.718 124.064C432.998 124.28 433.39 124.388 433.894 124.388C434.374 124.388 434.786 124.28 435.13 124.064C435.482 123.84 435.738 123.52 435.898 123.104L436.09 123.692C435.93 124.108 435.65 124.44 435.25 124.688C434.858 124.936 434.362 125.06 433.762 125.06ZM439.148 125V117.908C439.148 117.348 439.312 116.896 439.64 116.552C439.968 116.208 440.44 116.036 441.056 116.036C441.296 116.036 441.528 116.068 441.752 116.132C441.976 116.196 442.164 116.296 442.316 116.432L442.028 117.068C441.908 116.964 441.768 116.888 441.608 116.84C441.448 116.784 441.276 116.756 441.092 116.756C440.732 116.756 440.456 116.856 440.264 117.056C440.072 117.256 439.976 117.552 439.976 117.944V118.904L440 119.3V125H439.148ZM438.02 119.408V118.7H441.92V119.408H438.02ZM443.155 125V117.908C443.155 117.348 443.319 116.896 443.647 116.552C443.975 116.208 444.447 116.036 445.063 116.036C445.303 116.036 445.535 116.068 445.759 116.132C445.983 116.196 446.171 116.296 446.323 116.432L446.035 117.068C445.915 116.964 445.775 116.888 445.615 116.84C445.455 116.784 445.283 116.756 445.099 116.756C444.739 116.756 444.463 116.856 444.271 117.056C444.079 117.256 443.983 117.552 443.983 117.944V118.904L444.007 119.3V125H443.155ZM442.027 119.408V118.7H445.927V119.408H442.027ZM447.079 125V118.7H447.931V125H447.079ZM447.511 117.308C447.335 117.308 447.187 117.248 447.067 117.128C446.947 117.008 446.887 116.864 446.887 116.696C446.887 116.528 446.947 116.388 447.067 116.276C447.187 116.156 447.335 116.096 447.511 116.096C447.687 116.096 447.835 116.152 447.955 116.264C448.075 116.376 448.135 116.516 448.135 116.684C448.135 116.86 448.075 117.008 447.955 117.128C447.843 117.248 447.695 117.308 447.511 117.308ZM453.479 118.64C453.991 118.64 454.439 118.74 454.823 118.94C455.215 119.132 455.519 119.428 455.735 119.828C455.959 120.228 456.071 120.732 456.071 121.34V125H455.219V121.424C455.219 120.76 455.051 120.26 454.715 119.924C454.387 119.58 453.923 119.408 453.323 119.408C452.875 119.408 452.483 119.5 452.147 119.684C451.819 119.86 451.563 120.12 451.379 120.464C451.203 120.8 451.115 121.208 451.115 121.688V125H450.263V118.7H451.079V120.428L450.947 120.104C451.147 119.648 451.467 119.292 451.907 119.036C452.347 118.772 452.871 118.64 453.479 118.64ZM461.001 127.388C460.425 127.388 459.873 127.304 459.345 127.136C458.817 126.968 458.389 126.728 458.061 126.416L458.493 125.768C458.789 126.032 459.153 126.24 459.585 126.392C460.025 126.552 460.489 126.632 460.977 126.632C461.777 126.632 462.365 126.444 462.741 126.068C463.117 125.7 463.305 125.124 463.305 124.34V122.768L463.425 121.688L463.341 120.608V118.7H464.157V124.232C464.157 125.32 463.889 126.116 463.353 126.62C462.825 127.132 462.041 127.388 461.001 127.388ZM460.845 124.76C460.245 124.76 459.705 124.632 459.225 124.376C458.745 124.112 458.365 123.748 458.085 123.284C457.813 122.82 457.677 122.288 457.677 121.688C457.677 121.088 457.813 120.56 458.085 120.104C458.365 119.64 458.745 119.28 459.225 119.024C459.705 118.768 460.245 118.64 460.845 118.64C461.405 118.64 461.909 118.756 462.357 118.988C462.805 119.22 463.161 119.564 463.425 120.02C463.689 120.476 463.821 121.032 463.821 121.688C463.821 122.344 463.689 122.9 463.425 123.356C463.161 123.812 462.805 124.16 462.357 124.4C461.909 124.64 461.405 124.76 460.845 124.76ZM460.929 124.004C461.393 124.004 461.805 123.908 462.165 123.716C462.525 123.516 462.809 123.244 463.017 122.9C463.225 122.548 463.329 122.144 463.329 121.688C463.329 121.232 463.225 120.832 463.017 120.488C462.809 120.144 462.525 119.876 462.165 119.684C461.805 119.484 461.393 119.384 460.929 119.384C460.473 119.384 460.061 119.484 459.693 119.684C459.333 119.876 459.049 120.144 458.841 120.488C458.641 120.832 458.541 121.232 458.541 121.688C458.541 122.144 458.641 122.548 458.841 122.9C459.049 123.244 459.333 123.516 459.693 123.716C460.061 123.908 460.473 124.004 460.929 124.004Z" fill="white" />
                            <path d="M403.177 116.177C403.274 116.079 403.274 115.921 403.177 115.823L401.586 114.232C401.488 114.135 401.33 114.135 401.232 114.232C401.135 114.33 401.135 114.488 401.232 114.586L402.646 116L401.232 117.414C401.135 117.512 401.135 117.67 401.232 117.768C401.33 117.865 401.488 117.865 401.586 117.768L403.177 116.177ZM92 116V116.25H403V116V115.75H92V116Z" fill="white" />
                            <circle cx="94" cy="116" r="1.5" fill="black" stroke="white" />
                            <circle cx="136" cy="116" r="1.5" fill="black" stroke="white" />
                            <circle cx="255" cy="116" r="1.5" fill="black" stroke="white" />
                            <path d="M172.173 34.1833C172.273 34.0876 172.276 33.9293 172.18 33.8298L170.62 32.209C170.524 32.1095 170.366 32.1065 170.266 32.2023C170.167 32.298 170.164 32.4563 170.259 32.5558L171.647 33.9965L170.206 35.3837C170.106 35.4794 170.103 35.6377 170.199 35.7372C170.295 35.8366 170.453 35.8396 170.553 35.7439L172.173 34.1833ZM137 116L137.013 116.25C139.765 116.109 143.916 114.992 147.46 112.101C151.012 109.202 153.941 104.53 154.246 97.312L153.996 97.3014L153.747 97.2909C153.447 104.367 150.585 108.906 147.144 111.713C143.694 114.528 139.649 115.614 136.987 115.75L137 116ZM153.996 97.3014L154.246 97.312C154.549 90.1545 154.265 79.8829 154.048 70.7089C153.939 66.1192 153.847 61.8038 153.853 58.2841C153.859 54.7551 153.964 52.053 154.241 50.6735L153.996 50.6242L153.751 50.5749C153.462 52.0118 153.359 54.7657 153.353 58.2833C153.347 61.8102 153.44 66.1319 153.548 70.7207C153.765 79.9037 154.048 90.1543 153.747 97.2909L153.996 97.3014ZM153.996 50.6242L154.241 50.6735C154.802 47.8896 156.367 43.7194 159.234 40.2784C162.096 36.8436 166.246 34.1441 171.995 34.2532L172 34.0032L172.005 33.7533C166.07 33.6407 161.785 36.4354 158.85 39.9583C155.919 43.4751 154.324 47.7261 153.751 50.5749L153.996 50.6242Z" fill="white" />
                            <path d="M291.173 34.1833C291.273 34.0876 291.276 33.9293 291.18 33.8298L289.62 32.209C289.524 32.1095 289.366 32.1065 289.266 32.2023C289.167 32.298 289.164 32.4563 289.259 32.5558L290.647 33.9965L289.206 35.3837C289.106 35.4794 289.103 35.6377 289.199 35.7372C289.295 35.8366 289.453 35.8396 289.553 35.7439L291.173 34.1833ZM256 116L256.013 116.25C258.765 116.109 262.916 114.992 266.46 112.101C270.012 109.202 272.941 104.53 273.246 97.312L272.996 97.3014L272.747 97.2909C272.447 104.367 269.585 108.906 266.144 111.713C262.694 114.528 258.649 115.614 255.987 115.75L256 116ZM272.996 97.3014L273.246 97.312C273.549 90.1545 273.265 79.8829 273.048 70.7089C272.939 66.1192 272.847 61.8038 272.853 58.2841C272.859 54.7551 272.964 52.053 273.241 50.6735L272.996 50.6242L272.751 50.5749C272.462 52.0118 272.359 54.7657 272.353 58.2833C272.347 61.8102 272.44 66.1319 272.548 70.7207C272.765 79.9037 273.048 90.1543 272.747 97.2909L272.996 97.3014ZM272.996 50.6242L273.241 50.6735C273.802 47.8896 275.367 43.7194 278.234 40.2784C281.096 36.8436 285.246 34.1441 290.995 34.2532L291 34.0032L291.005 33.7533C285.07 33.6407 280.785 36.4354 277.85 39.9583C274.919 43.4751 273.324 47.7261 272.751 50.5749L272.996 50.6242Z" fill="white" />
                            <path d="M172.173 197.817C172.273 197.912 172.276 198.071 172.18 198.17L170.62 199.791C170.524 199.89 170.366 199.893 170.266 199.798C170.167 199.702 170.164 199.544 170.259 199.444L171.647 198.003L170.206 196.616C170.106 196.521 170.103 196.362 170.199 196.263C170.295 196.163 170.453 196.16 170.553 196.256L172.173 197.817ZM137 116L137.013 115.75C139.765 115.891 143.916 117.008 147.46 119.899C151.012 122.798 153.941 127.47 154.246 134.688L153.996 134.699L153.747 134.709C153.447 127.633 150.585 123.094 147.144 120.287C143.694 117.472 139.649 116.386 136.987 116.25L137 116ZM153.996 134.699L154.246 134.688C154.549 141.845 154.265 152.117 154.048 161.291C153.939 165.881 153.847 170.196 153.853 173.716C153.859 177.245 153.964 179.947 154.241 181.326L153.996 181.376L153.751 181.425C153.462 179.988 153.359 177.234 153.353 173.717C153.347 170.19 153.44 165.868 153.548 161.279C153.765 152.096 154.048 141.846 153.747 134.709L153.996 134.699ZM153.996 181.376L154.241 181.326C154.802 184.11 156.367 188.281 159.234 191.722C162.096 195.156 166.246 197.856 171.995 197.747L172 197.997L172.005 198.247C166.07 198.359 161.785 195.565 158.85 192.042C155.919 188.525 154.324 184.274 153.751 181.425L153.996 181.376Z" fill="white" />
                            <path d="M291.173 197.817C291.273 197.912 291.276 198.071 291.18 198.17L289.62 199.791C289.524 199.89 289.366 199.893 289.266 199.798C289.167 199.702 289.164 199.544 289.259 199.444L290.647 198.003L289.206 196.616C289.106 196.521 289.103 196.362 289.199 196.263C289.295 196.163 289.453 196.16 289.553 196.256L291.173 197.817ZM256 116L256.013 115.75C258.765 115.891 262.916 117.008 266.46 119.899C270.012 122.798 272.941 127.47 273.246 134.688L272.996 134.699L272.747 134.709C272.447 127.633 269.585 123.094 266.144 120.287C262.694 117.472 258.649 116.386 255.987 116.25L256 116ZM272.996 134.699L273.246 134.688C273.549 141.845 273.265 152.117 273.048 161.291C272.939 165.881 272.847 170.196 272.853 173.716C272.859 177.245 272.964 179.947 273.241 181.326L272.996 181.376L272.751 181.425C272.462 179.988 272.359 177.234 272.353 173.717C272.347 170.19 272.44 165.868 272.548 161.279C272.765 152.096 273.048 141.846 272.747 134.709L272.996 134.699ZM272.996 181.376L273.241 181.326C273.802 184.11 275.367 188.281 278.234 191.722C281.096 195.156 285.246 197.856 290.995 197.747L291 197.997L291.005 198.247C285.07 198.359 280.785 195.565 277.85 192.042C274.919 188.525 273.324 184.274 272.751 181.425L272.996 181.376Z" fill="white" />
                        </svg>